{
copyright = "Copyright \U00A9 2015 by Alessia Mazzarella. All rights reserved.";
date = "2015-07-07 13:59:33 +0000";
designer = "Alessia Mazzarella";
designerURL = www.type.land;
familyName = "Langar";
fontMaster = (
{
alignmentZones = (
"{800, 16}",
"{700, 16}",
"{500, 16}",
"{0, -15}",
"{-200, -16}"
);
ascender = 800;
capHeight = 700;
descender = "-200";
guideLines = (
{
position = "{211, 640}";
}
);
id = "B08EA6CB-0345-4FE8-BF44-53271D6C1876";
userData = {
GSCornerRadius = 30;
GSOffsetHorizontal = 45;
GSOffsetMakeStroke = 1;
GSOffsetVertical = 40;
};
xHeight = 500;
}
);
glyphs = (
{
color = 1;
glyphname = a;
lastChange = "2015-08-27 14:27:48 +0000";
layers = (
{
background = {
paths = (
{
closed = 1;
nodes = (
"408 500 OFFCURVE",
"355 500 OFFCURVE",
"325 492 CURVE",
"328 239 LINE",
"338 207 LINE",
"319 38 LINE",
"337 23 OFFCURVE",
"392 -12 OFFCURVE",
"412 -14 CURVE",
"547 52 LINE",
"544 83 OFFCURVE",
"527 120 OFFCURVE",
"518 136 CURVE",
"394 99 LINE",
"439 22 LINE",
"429 246 LINE",
"438 492 LINE"
);
},
{
closed = 1;
nodes = (
"332 527 OFFCURVE",
"222 516 OFFCURVE",
"115 502 CURVE",
"78 469 OFFCURVE",
"60 436 OFFCURVE",
"46 403 CURVE",
"30 107 LINE",
"42 60 OFFCURVE",
"87 2 OFFCURVE",
"117 -14 CURVE",
"211 -14 OFFCURVE",
"439 174 OFFCURVE",
"489 417 CURVE",
"486 432 OFFCURVE",
"459 468 OFFCURVE",
"438 492 CURVE",
"398 492 LINE",
"398 349 OFFCURVE",
"255 128 OFFCURVE",
"164 106 CURVE SMOOTH",
"141 100 OFFCURVE",
"123 279 OFFCURVE",
"192 427 CURVE",
"150 389 LINE",
"237 409 OFFCURVE",
"307 412 OFFCURVE",
"385 401 CURVE",
"438 492 LINE"
);
}
);
};
components = (
{
name = rounded.a;
transform = "{1, 0, 0, 1, 0, 0}";
}
);
layerId = "B08EA6CB-0345-4FE8-BF44-53271D6C1876";
name = Regular;
paths = (
{
closed = 1;
nodes = (
"429 246 LINE",
"438 492 LINE",
"408 500 OFFCURVE",
"355 500 OFFCURVE",
"325 492 CURVE",
"328 239 LINE",
"338 207 LINE",
"319 36 LINE",
"337 21 OFFCURVE",
"392 -14 OFFCURVE",
"412 -16 CURVE",
"547 50 LINE",
"544 81 OFFCURVE",
"527 113 OFFCURVE",
"518 129 CURVE",
"394 97 LINE",
"439 20 LINE"
);
}
);
width = 532;
},
{
associatedMasterId = "B08EA6CB-0345-4FE8-BF44-53271D6C1876";
background = {
paths = (
{
closed = 1;
nodes = (
"478 509 OFFCURVE",
"445 509 OFFCURVE",
"415 501 CURVE",
"419 169 LINE",
"428 163 LINE",
"418 13 LINE",
"436 -2 OFFCURVE",
"462 -13 OFFCURVE",
"482 -15 CURVE",
"609 11 LINE",
"607 23 OFFCURVE",
"604 46 OFFCURVE",
"598 58 CURVE",
"464 58 LINE",
"509 21 LINE",
"499 245 LINE",
"508 501 LINE"
);
},
{
closed = 1;
nodes = (
"316 288 OFFCURVE",
"220 269 OFFCURVE",
"91 238 CURVE",
"39 160 OFFCURVE",
"108 -16 OFFCURVE",
"239 -16 CURVE SMOOTH",
"366 -16 OFFCURVE",
"424 102 OFFCURVE",
"466 206 CURVE",
"440 236 LINE",
"383 155 OFFCURVE",
"358 62 OFFCURVE",
"258 62 CURVE SMOOTH",
"203 62 OFFCURVE",
"169 120 OFFCURVE",
"167 173 CURVE",
"254 212 OFFCURVE",
"346 240 OFFCURVE",
"453 253 CURVE",
"445 299 LINE"
);
},
{
closed = 1;
nodes = (
"450 458 LINE",
"320 502 OFFCURVE",
"229 516 OFFCURVE",
"99 500 CURVE",
"94 462 OFFCURVE",
"102 441 OFFCURVE",
"117 403 CURVE",
"240 436 OFFCURVE",
"328 430 OFFCURVE",
"451 403 CURVE"
);
}
);
};
layerId = "52A5A4B5-AF09-46BE-A244-DCDB15B44143";
name = "Regular Jul 12 15, 20:19";
paths = (
{
closed = 1;
nodes = (
"478 509 OFFCURVE",
"445 509 OFFCURVE",
"415 501 CURVE",
"419 169 LINE",
"428 163 LINE",
"418 13 LINE",
"436 -2 OFFCURVE",
"462 -13 OFFCURVE",
"482 -15 CURVE",
"609 11 LINE",
"607 23 OFFCURVE",
"604 46 OFFCURVE",
"598 58 CURVE",
"464 58 LINE",
"509 21 LINE",
"499 245 LINE",
"508 501 LINE"
);
},
{
closed = 1;
nodes = (
"316 288 OFFCURVE",
"220 269 OFFCURVE",
"91 238 CURVE",
"39 160 OFFCURVE",
"108 -16 OFFCURVE",
"239 -16 CURVE SMOOTH",
"366 -16 OFFCURVE",
"424 102 OFFCURVE",
"466 206 CURVE",
"440 236 LINE",
"383 155 OFFCURVE",
"358 62 OFFCURVE",
"258 62 CURVE SMOOTH",
"203 62 OFFCURVE",
"169 120 OFFCURVE",
"167 173 CURVE",
"254 212 OFFCURVE",
"346 240 OFFCURVE",
"453 253 CURVE",
"445 299 LINE"
);
},
{
closed = 1;
nodes = (
"450 458 LINE",
"320 502 OFFCURVE",
"229 516 OFFCURVE",
"99 500 CURVE",
"94 462 OFFCURVE",
"102 441 OFFCURVE",
"117 403 CURVE",
"240 436 OFFCURVE",
"328 430 OFFCURVE",
"451 403 CURVE"
);
}
);
width = 600;
},
{
associatedMasterId = "B08EA6CB-0345-4FE8-BF44-53271D6C1876";
background = {
paths = (
{
closed = 1;
nodes = (
"389 518 OFFCURVE",
"336 518 OFFCURVE",
"306 510 CURVE",
"309 247 LINE",
"319 215 LINE",
"309 22 LINE",
"327 7 OFFCURVE",
"373 -4 OFFCURVE",
"393 -6 CURVE",
"528 20 LINE",
"529 57 OFFCURVE",
"523 95 OFFCURVE",
"517 107 CURVE",
"375 107 LINE",
"420 30 LINE",
"410 254 LINE",
"419 510 LINE"
);
},
{
closed = 1;
nodes = (
"168 460 OFFCURVE",
"144 495 OFFCURVE",
"131 513 CURVE",
"97 518 OFFCURVE",
"51 517 OFFCURVE",
"21 510 CURVE",
"1 115 LINE",
"13 68 OFFCURVE",
"58 10 OFFCURVE",
"88 -6 CURVE",
"222 -6 OFFCURVE",
"420 182 OFFCURVE",
"470 425 CURVE",
"467 440 OFFCURVE",
"440 486 OFFCURVE",
"419 510 CURVE",
"379 510 LINE",
"379 367 OFFCURVE",
"266 156 OFFCURVE",
"135 134 CURVE SMOOTH",
"112 130 OFFCURVE",
"104 287 OFFCURVE",
"173 435 CURVE"
);
},
{
closed = 1;
nodes = (
"419 510 LINE",
"289 554 OFFCURVE",
"151 526 OFFCURVE",
"21 510 CURVE",
"16 472 OFFCURVE",
"102 441 OFFCURVE",
"117 403 CURVE",
"240 436 OFFCURVE",
"328 430 OFFCURVE",
"451 403 CURVE"
);
}
);
};
layerId = "EFAB7853-CA7D-48ED-A818-0922BBFD85D0";
name = "Regular Jul 12 15, 20:20";
paths = (
{
closed = 1;
nodes = (
"389 518 OFFCURVE",
"336 518 OFFCURVE",
"306 510 CURVE",
"309 247 LINE",
"319 215 LINE",
"309 22 LINE",
"327 7 OFFCURVE",
"373 -4 OFFCURVE",
"393 -6 CURVE",
"528 20 LINE",
"529 57 OFFCURVE",
"523 95 OFFCURVE",
"517 107 CURVE",
"375 107 LINE",
"420 30 LINE",
"410 254 LINE",
"419 510 LINE"
);
},
{
closed = 1;
nodes = (
"168 460 OFFCURVE",
"144 495 OFFCURVE",
"131 513 CURVE",
"97 518 OFFCURVE",
"51 517 OFFCURVE",
"21 510 CURVE",
"1 115 LINE",
"13 68 OFFCURVE",
"58 10 OFFCURVE",
"88 -6 CURVE",
"222 -6 OFFCURVE",
"420 182 OFFCURVE",
"470 425 CURVE",
"467 440 OFFCURVE",
"440 486 OFFCURVE",
"419 510 CURVE",
"379 510 LINE",
"379 367 OFFCURVE",
"266 156 OFFCURVE",
"135 134 CURVE SMOOTH",
"112 130 OFFCURVE",
"104 287 OFFCURVE",
"173 435 CURVE"
);
},
{
closed = 1;
nodes = (
"419 510 LINE",
"289 554 OFFCURVE",
"151 526 OFFCURVE",
"21 510 CURVE",
"16 472 OFFCURVE",
"102 441 OFFCURVE",
"117 403 CURVE",
"240 436 OFFCURVE",
"328 430 OFFCURVE",
"451 403 CURVE"
);
}
);
width = 600;
},
{
associatedMasterId = "B08EA6CB-0345-4FE8-BF44-53271D6C1876";
background = {
paths = (
{
closed = 1;
nodes = (
"389 518 OFFCURVE",
"336 518 OFFCURVE",
"306 510 CURVE",
"309 247 LINE",
"319 215 LINE",
"309 22 LINE",
"327 7 OFFCURVE",
"373 -4 OFFCURVE",
"393 -6 CURVE",
"528 20 LINE",
"529 57 OFFCURVE",
"523 95 OFFCURVE",
"517 107 CURVE",
"375 107 LINE",
"420 30 LINE",
"410 254 LINE",
"419 510 LINE"
);
},
{
closed = 1;
nodes = (
"168 460 OFFCURVE",
"144 495 OFFCURVE",
"131 513 CURVE",
"97 518 OFFCURVE",
"51 517 OFFCURVE",
"21 510 CURVE",
"1 115 LINE",
"13 68 OFFCURVE",
"58 10 OFFCURVE",
"88 -6 CURVE",
"222 -6 OFFCURVE",
"420 182 OFFCURVE",
"470 425 CURVE",
"467 440 OFFCURVE",
"440 486 OFFCURVE",
"419 510 CURVE",
"379 510 LINE",
"379 367 OFFCURVE",
"266 156 OFFCURVE",
"135 134 CURVE SMOOTH",
"112 130 OFFCURVE",
"104 287 OFFCURVE",
"173 435 CURVE"
);
},
{
closed = 1;
nodes = (
"419 510 LINE",
"289 554 OFFCURVE",
"151 526 OFFCURVE",
"21 510 CURVE",
"16 472 OFFCURVE",
"102 441 OFFCURVE",
"117 403 CURVE",
"240 436 OFFCURVE",
"328 430 OFFCURVE",
"451 403 CURVE"
);
}
);
};
layerId = "2C998B74-426A-4077-A3BF-06F4B441E139";
name = "Regular Jul 12 15, 21:32";
paths = (
{
closed = 1;
nodes = (
"389 500 OFFCURVE",
"336 500 OFFCURVE",
"306 492 CURVE",
"309 238 LINE",
"319 206 LINE",
"309 13 LINE",
"327 -2 OFFCURVE",
"373 -13 OFFCURVE",
"393 -15 CURVE",
"528 11 LINE",
"529 48 OFFCURVE",
"523 86 OFFCURVE",
"517 98 CURVE",
"375 98 LINE",
"420 21 LINE",
"410 245 LINE",
"419 492 LINE"
);
},
{
closed = 1;
nodes = (
"59 469 OFFCURVE",
"33 436 OFFCURVE",
"16 403 CURVE",
"1 106 LINE",
"13 59 OFFCURVE",
"58 1 OFFCURVE",
"88 -15 CURVE",
"222 -15 OFFCURVE",
"420 164 OFFCURVE",
"470 407 CURVE",
"467 422 OFFCURVE",
"440 468 OFFCURVE",
"419 492 CURVE",
"313 527 OFFCURVE",
"203 516 OFFCURVE",
"96 502 CURVE"
);
},
{
closed = 1;
nodes = (
"111 101 OFFCURVE",
"104 286 OFFCURVE",
"184 439 CURVE",
"131 389 LINE",
"218 409 OFFCURVE",
"288 412 OFFCURVE",
"366 401 CURVE",
"333 273 OFFCURVE",
"240 123 OFFCURVE",
"135 105 CURVE SMOOTH"
);
}
);
width = 600;
},
{
associatedMasterId = "B08EA6CB-0345-4FE8-BF44-53271D6C1876";
background = {
paths = (
{
closed = 1;
nodes = (
"389 500 OFFCURVE",
"336 500 OFFCURVE",
"306 492 CURVE",
"309 238 LINE",
"319 206 LINE",
"309 13 LINE",
"327 -2 OFFCURVE",
"373 -13 OFFCURVE",
"393 -15 CURVE",
"528 11 LINE",
"529 48 OFFCURVE",
"523 86 OFFCURVE",
"517 98 CURVE",
"375 98 LINE",
"420 21 LINE",
"410 245 LINE",
"419 492 LINE"
);
},
{
closed = 1;
nodes = (
"59 489 OFFCURVE",
"33 456 OFFCURVE",
"16 423 CURVE",
"1 126 LINE",
"13 79 OFFCURVE",
"58 21 OFFCURVE",
"88 5 CURVE",
"222 5 OFFCURVE",
"420 184 OFFCURVE",
"470 427 CURVE",
"467 442 OFFCURVE",
"440 488 OFFCURVE",
"419 512 CURVE",
"313 547 OFFCURVE",
"203 536 OFFCURVE",
"96 522 CURVE"
);
},
{
closed = 1;
nodes = (
"111 121 OFFCURVE",
"104 306 OFFCURVE",
"184 459 CURVE",
"131 409 LINE",
"218 429 OFFCURVE",
"288 432 OFFCURVE",
"366 421 CURVE",
"333 293 OFFCURVE",
"240 143 OFFCURVE",
"135 125 CURVE SMOOTH"
);
}
);
};
layerId = "ED2D0B91-3A95-49C5-BA81-1BB39976B29D";
name = "Regular Jul 12 15, 21:34";
paths = (
{
closed = 1;
nodes = (
"389 510 OFFCURVE",
"336 510 OFFCURVE",
"306 502 CURVE",
"309 239 LINE",
"319 207 LINE",
"300 38 LINE",
"318 23 OFFCURVE",
"373 -12 OFFCURVE",
"393 -14 CURVE",
"528 52 LINE",
"525 83 OFFCURVE",
"508 120 OFFCURVE",
"499 136 CURVE",
"375 99 LINE",
"420 22 LINE",
"410 246 LINE",
"419 502 LINE"
);
},
{
closed = 1;
nodes = (
"56 404 LINE",
"31 449 LINE",
"11 107 LINE",
"23 60 OFFCURVE",
"68 2 OFFCURVE",
"98 -14 CURVE",
"192 -14 OFFCURVE",
"420 174 OFFCURVE",
"470 417 CURVE",
"467 432 OFFCURVE",
"440 478 OFFCURVE",
"419 502 CURVE",
"379 502 LINE",
"379 359 OFFCURVE",
"236 128 OFFCURVE",
"145 106 CURVE SMOOTH",
"122 100 OFFCURVE",
"104 279 OFFCURVE",
"173 427 CURVE",
"150 470 OFFCURVE",
"120 500 OFFCURVE",
"85 517 CURVE",
"-62 485 LINE",
"-63 448 OFFCURVE",
"-59 419 OFFCURVE",
"-53 407 CURVE"
);
},
{
closed = 0;
nodes = (
"419 492 LINE",
"313 527 OFFCURVE",
"203 516 OFFCURVE",
"96 502 CURVE",
"59 469 OFFCURVE",
"33 436 OFFCURVE",
"16 403 CURVE"
);
},
{
closed = 0;
nodes = (
"184 439 LINE",
"131 389 LINE",
"218 409 OFFCURVE",
"288 412 OFFCURVE",
"366 401 CURVE"
);
}
);
width = 600;
},
{
associatedMasterId = "B08EA6CB-0345-4FE8-BF44-53271D6C1876";
background = {
paths = (
{
closed = 1;
nodes = (
"408 500 OFFCURVE",
"355 500 OFFCURVE",
"325 492 CURVE",
"328 239 LINE",
"338 207 LINE",
"319 38 LINE",
"337 23 OFFCURVE",
"392 -12 OFFCURVE",
"412 -14 CURVE",
"547 52 LINE",
"544 83 OFFCURVE",
"527 120 OFFCURVE",
"518 136 CURVE",
"394 99 LINE",
"439 22 LINE",
"429 246 LINE",
"438 492 LINE"
);
},
{
closed = 1;
nodes = (
"332 527 OFFCURVE",
"222 516 OFFCURVE",
"115 502 CURVE",
"78 469 OFFCURVE",
"60 436 OFFCURVE",
"46 403 CURVE",
"30 107 LINE",
"42 60 OFFCURVE",
"87 2 OFFCURVE",
"117 -14 CURVE",
"211 -14 OFFCURVE",
"439 174 OFFCURVE",
"489 417 CURVE",
"486 432 OFFCURVE",
"459 468 OFFCURVE",
"438 492 CURVE",
"398 492 LINE",
"398 349 OFFCURVE",
"255 128 OFFCURVE",
"164 106 CURVE SMOOTH",
"141 100 OFFCURVE",
"123 279 OFFCURVE",
"192 427 CURVE",
"150 389 LINE",
"237 409 OFFCURVE",
"307 412 OFFCURVE",
"385 401 CURVE",
"438 492 LINE"
);
}
);
};
layerId = "E47A9656-FB60-44D9-9EC7-E704DBCAF03F";
name = "Regular Jul 12 15, 23:59";
paths = (
{
closed = 1;
nodes = (
"408 500 OFFCURVE",
"355 500 OFFCURVE",
"325 492 CURVE",
"328 239 LINE",
"338 207 LINE",
"319 38 LINE",
"337 23 OFFCURVE",
"392 -12 OFFCURVE",
"412 -14 CURVE",
"547 52 LINE",
"544 83 OFFCURVE",
"527 120 OFFCURVE",
"518 136 CURVE",
"394 99 LINE",
"439 22 LINE",
"429 246 LINE",
"438 492 LINE"
);
},
{
closed = 1;
nodes = (
"332 527 OFFCURVE",
"222 516 OFFCURVE",
"115 502 CURVE",
"78 469 OFFCURVE",
"60 436 OFFCURVE",
"46 403 CURVE",
"30 107 LINE",
"42 60 OFFCURVE",
"87 2 OFFCURVE",
"117 -14 CURVE",
"211 -14 OFFCURVE",
"439 174 OFFCURVE",
"489 417 CURVE",
"486 432 OFFCURVE",
"459 468 OFFCURVE",
"438 492 CURVE",
"398 492 LINE",
"398 349 OFFCURVE",
"255 128 OFFCURVE",
"164 106 CURVE SMOOTH",
"141 100 OFFCURVE",
"123 279 OFFCURVE",
"192 427 CURVE",
"150 389 LINE",
"237 409 OFFCURVE",
"307 412 OFFCURVE",
"385 401 CURVE",
"438 492 LINE"
);
}
);
width = 532;
}
);
rightMetricsKey = n;
unicode = 0061;
},
{
color = 1;
glyphname = b;
lastChange = "2015-08-27 14:27:41 +0000";
layers = (
{
background = {
paths = (
{
closed = 1;
nodes = (
"205 -28 OFFCURVE",
"315 -15 OFFCURVE",
"422 -1 CURVE",
"459 32 OFFCURVE",
"477 63 OFFCURVE",
"491 96 CURVE",
"507 392 LINE",
"495 439 OFFCURVE",
"450 499 OFFCURVE",
"420 515 CURVE",
"326 515 OFFCURVE",
"98 325 OFFCURVE",
"48 82 CURVE",
"51 67 OFFCURVE",
"78 24 OFFCURVE",
"99 0 CURVE",
"139 0 LINE",
"139 143 OFFCURVE",
"282 371 OFFCURVE",
"373 393 CURVE SMOOTH",
"396 399 OFFCURVE",
"414 220 OFFCURVE",
"345 72 CURVE",
"387 110 LINE",
"300 90 OFFCURVE",
"230 87 OFFCURVE",
"152 98 CURVE",
"99 0 LINE"
);
}
);
};
layerId = "B08EA6CB-0345-4FE8-BF44-53271D6C1876";
name = Regular;
paths = (
{
closed = 1;
nodes = (
"200 779 OFFCURVE",
"145 814 OFFCURVE",
"125 816 CURVE",
"-10 750 LINE",
"-7 719 OFFCURVE",
"10 688 OFFCURVE",
"19 672 CURVE",
"143 704 LINE",
"98 780 LINE",
"108 256 LINE",
"99 0 LINE",
"129 -8 OFFCURVE",
"182 -8 OFFCURVE",
"212 0 CURVE",
"209 263 LINE",
"199 295 LINE",
"218 764 LINE"
);
},
{
closed = 1;
nodes = (
"205 -28 OFFCURVE",
"316 -16 OFFCURVE",
"423 -2 CURVE",
"460 31 OFFCURVE",
"478 62 OFFCURVE",
"492 95 CURVE",
"508 392 LINE",
"496 439 OFFCURVE",
"451 500 OFFCURVE",
"421 516 CURVE",
"327 516 OFFCURVE",
"99 324 OFFCURVE",
"49 81 CURVE",
"52 66 OFFCURVE",
"79 24 OFFCURVE",
"100 0 CURVE",
"140 0 LINE",
"140 143 OFFCURVE",
"283 371 OFFCURVE",
"374 393 CURVE SMOOTH",
"397 399 OFFCURVE",
"415 219 OFFCURVE",
"346 71 CURVE",
"388 109 LINE",
"301 89 OFFCURVE",
"231 86 OFFCURVE",
"153 97 CURVE",
"100 0 LINE"
);
}
);
width = 538;
},
{
associatedMasterId = "B08EA6CB-0345-4FE8-BF44-53271D6C1876";
background = {
paths = (
{
closed = 1;
nodes = (
"136 -8 OFFCURVE",
"171 -8 OFFCURVE",
"201 0 CURVE",
"192 363 LINE",
"197 698 LINE",
"179 713 OFFCURVE",
"153 724 OFFCURVE",
"133 726 CURVE",
"6 700 LINE",
"8 688 OFFCURVE",
"11 665 OFFCURVE",
"17 653 CURVE",
"151 653 LINE",
"106 690 LINE",
"115 356 LINE",
"106 0 LINE"
);
},
{
closed = 1;
nodes = (
"266 30 OFFCURVE",
"321 -11 OFFCURVE",
"369 -11 CURVE SMOOTH",
"500 -11 OFFCURVE",
"567 130 OFFCURVE",
"567 266 CURVE SMOOTH",
"567 393 OFFCURVE",
"524 519 OFFCURVE",
"406 517 CURVE SMOOTH",
"304 515 OFFCURVE",
"203 408 OFFCURVE",
"154 249 CURVE",
"177 226 LINE",
"235 329 OFFCURVE",
"351 417 OFFCURVE",
"403 417 CURVE SMOOTH",
"465 417 OFFCURVE",
"481 373 OFFCURVE",
"481 296 CURVE SMOOTH",
"481 158 OFFCURVE",
"443 66 OFFCURVE",
"357 66 CURVE SMOOTH",
"309 66 OFFCURVE",
"228 101 OFFCURVE",
"173 157 CURVE",
"169 112 LINE"
);
},
{
closed = 1;
nodes = (
"142 211 LINE",
"123 157 OFFCURVE",
"106 98 OFFCURVE",
"95 35 CURVE",
"98 20 OFFCURVE",
"99 15 OFFCURVE",
"106 0 CURVE",
"146 0 LINE",
"146 49 OFFCURVE",
"159 111 OFFCURVE",
"183 171 CURVE"
);
}
);
};
layerId = "CCBEB497-DF2F-4071-91E8-72E7D14E1849";
name = "Regular Jul 12 15, 19:27";
paths = (
{
closed = 1;
nodes = (
"136 -8 OFFCURVE",
"171 -8 OFFCURVE",
"201 0 CURVE",
"190 305 LINE",
"197 698 LINE",
"179 713 OFFCURVE",
"153 724 OFFCURVE",
"133 726 CURVE",
"6 700 LINE",
"8 688 OFFCURVE",
"11 665 OFFCURVE",
"17 653 CURVE",
"151 653 LINE",
"106 690 LINE",
"115 356 LINE",
"106 0 LINE"
);
},
{
closed = 1;
nodes = (
"189 40 OFFCURVE",
"273 -11 OFFCURVE",
"321 -11 CURVE SMOOTH",
"452 -11 OFFCURVE",
"567 96 OFFCURVE",
"567 266 CURVE SMOOTH",
"567 393 OFFCURVE",
"477 517 OFFCURVE",
"406 517 CURVE SMOOTH",
"304 517 OFFCURVE",
"203 408 OFFCURVE",
"154 249 CURVE",
"177 226 LINE",
"235 329 OFFCURVE",
"351 417 OFFCURVE",
"403 417 CURVE SMOOTH",
"457 417 OFFCURVE",
"483 350 OFFCURVE",
"483 275 CURVE SMOOTH",
"483 146 OFFCURVE",
"404 64 OFFCURVE",
"309 64 CURVE SMOOTH",
"263 64 OFFCURVE",
"213 83 OFFCURVE",
"167 127 CURVE",
"163 82 LINE"
);
},
{
closed = 1;
nodes = (
"132 210 LINE",
"113 156 OFFCURVE",
"100 98 OFFCURVE",
"95 35 CURVE",
"98 20 OFFCURVE",
"99 15 OFFCURVE",
"106 0 CURVE",
"146 0 LINE",
"146 49 OFFCURVE",
"159 111 OFFCURVE",
"183 171 CURVE"
);
}
);
width = 600;
},
{
associatedMasterId = "B08EA6CB-0345-4FE8-BF44-53271D6C1876";
background = {
paths = (
{
closed = 1;
nodes = (
"135 -8 OFFCURVE",
"170 -8 OFFCURVE",
"200 0 CURVE",
"191 363 LINE",
"196 698 LINE",
"178 713 OFFCURVE",
"152 724 OFFCURVE",
"132 726 CURVE",
"5 700 LINE",
"7 688 OFFCURVE",
"10 665 OFFCURVE",
"16 653 CURVE",
"150 653 LINE",
"105 690 LINE",
"114 356 LINE",
"105 0 LINE"
);
},
{
closed = 1;
nodes = (
"265 30 OFFCURVE",
"320 -11 OFFCURVE",
"368 -11 CURVE SMOOTH",
"499 -11 OFFCURVE",
"566 130 OFFCURVE",
"566 266 CURVE SMOOTH",
"566 393 OFFCURVE",
"523 519 OFFCURVE",
"405 517 CURVE SMOOTH",
"303 515 OFFCURVE",
"202 408 OFFCURVE",
"153 249 CURVE",
"176 226 LINE",
"234 329 OFFCURVE",
"350 417 OFFCURVE",
"402 417 CURVE SMOOTH",
"464 417 OFFCURVE",
"480 373 OFFCURVE",
"480 296 CURVE SMOOTH",
"480 158 OFFCURVE",
"442 66 OFFCURVE",
"356 66 CURVE SMOOTH",
"308 66 OFFCURVE",
"227 101 OFFCURVE",
"172 157 CURVE",
"168 112 LINE"
);
},
{
closed = 1;
nodes = (
"141 211 LINE",
"122 157 OFFCURVE",
"105 98 OFFCURVE",
"94 35 CURVE",
"97 20 OFFCURVE",
"98 15 OFFCURVE",
"105 0 CURVE",
"145 0 LINE",
"145 49 OFFCURVE",
"158 111 OFFCURVE",
"182 171 CURVE"
);
}
);
};
layerId = "60DEB84B-A780-4E61-9B2B-44BC4710CFF2";
name = "Regular Jul 12 15, 22:07";
paths = (
{
closed = 1;
nodes = (
"135 -8 OFFCURVE",
"170 -8 OFFCURVE",
"200 0 CURVE",
"189 305 LINE",
"196 698 LINE",
"178 713 OFFCURVE",
"152 724 OFFCURVE",
"132 726 CURVE",
"5 700 LINE",
"7 688 OFFCURVE",
"10 665 OFFCURVE",
"16 653 CURVE",
"150 653 LINE",
"105 690 LINE",
"114 356 LINE",
"105 0 LINE"
);
},
{
closed = 1;
nodes = (
"188 40 OFFCURVE",
"272 -11 OFFCURVE",
"320 -11 CURVE SMOOTH",
"451 -11 OFFCURVE",
"566 96 OFFCURVE",
"566 266 CURVE SMOOTH",
"566 393 OFFCURVE",
"476 515 OFFCURVE",
"405 517 CURVE",
"303 517 OFFCURVE",
"202 408 OFFCURVE",
"153 249 CURVE",
"176 226 LINE",
"234 329 OFFCURVE",
"350 417 OFFCURVE",
"402 417 CURVE SMOOTH",
"456 417 OFFCURVE",
"482 350 OFFCURVE",
"482 275 CURVE SMOOTH",
"482 146 OFFCURVE",
"403 64 OFFCURVE",
"308 64 CURVE SMOOTH",
"262 64 OFFCURVE",
"212 83 OFFCURVE",
"166 127 CURVE",
"162 82 LINE"
);
},
{
closed = 1;
nodes = (
"131 210 LINE",
"112 156 OFFCURVE",
"99 98 OFFCURVE",
"94 35 CURVE",
"97 20 OFFCURVE",
"98 15 OFFCURVE",
"105 0 CURVE",
"145 0 LINE",
"145 49 OFFCURVE",
"158 111 OFFCURVE",
"182 171 CURVE"
);
}
);
width = 599;
},
{
associatedMasterId = "B08EA6CB-0345-4FE8-BF44-53271D6C1876";
background = {
paths = (
{
closed = 1;
nodes = (
"238 -28 OFFCURVE",
"348 -17 OFFCURVE",
"455 -3 CURVE",
"492 30 OFFCURVE",
"510 63 OFFCURVE",
"524 96 CURVE",
"540 392 LINE",
"528 439 OFFCURVE",
"483 499 OFFCURVE",
"453 515 CURVE",
"359 515 OFFCURVE",
"131 325 OFFCURVE",
"81 82 CURVE",
"84 67 OFFCURVE",
"111 31 OFFCURVE",
"132 7 CURVE",
"172 7 LINE",
"172 150 OFFCURVE",
"315 371 OFFCURVE",
"406 393 CURVE SMOOTH",
"429 399 OFFCURVE",
"447 220 OFFCURVE",
"378 72 CURVE",
"420 110 LINE",
"333 90 OFFCURVE",
"263 87 OFFCURVE",
"185 98 CURVE",
"132 7 LINE"
);
}
);
};
layerId = "58EA6861-1E95-4326-8EA1-E58E6EB29F00";
name = "Regular Jul 15 15, 22:07";
paths = (
{
closed = 1;
nodes = (
"247 -26 OFFCURVE",
"357 -15 OFFCURVE",
"464 -1 CURVE",
"501 32 OFFCURVE",
"519 65 OFFCURVE",
"533 98 CURVE",
"539 394 LINE",
"527 441 OFFCURVE",
"482 500 OFFCURVE",
"452 516 CURVE",
"358 516 OFFCURVE",
"140 327 OFFCURVE",
"90 84 CURVE",
"93 69 OFFCURVE",
"120 33 OFFCURVE",
"141 9 CURVE",
"181 9 LINE",
"181 152 OFFCURVE",
"314 373 OFFCURVE",
"405 395 CURVE SMOOTH",
"428 401 OFFCURVE",
"456 222 OFFCURVE",
"387 74 CURVE",
"429 112 LINE",
"342 92 OFFCURVE",
"272 89 OFFCURVE",
"194 100 CURVE",
"141 9 LINE"
);
},
{
closed = 1;
nodes = (
"200 779 OFFCURVE",
"145 814 OFFCURVE",
"125 816 CURVE",
"-10 750 LINE",
"-7 719 OFFCURVE",
"10 688 OFFCURVE",
"19 672 CURVE",
"143 704 LINE",
"98 780 LINE",
"108 406 LINE",
"68 76 LINE",
"93 42 OFFCURVE",
"108 30 OFFCURVE",
"141 9 CURVE",
"250 42 LINE",
"185 99 LINE",
"210 54 LINE",
"209 413 LINE",
"218 764 LINE"
);
}
);
width = 579;
}
);
unicode = 0062;
},
{
color = 1;
glyphname = d;
lastChange = "2015-08-27 14:27:41 +0000";
layers = (
{
background = {
paths = (
{
closed = 1;
nodes = (
"388 24 OFFCURVE",
"443 -11 OFFCURVE",
"463 -13 CURVE",
"598 53 LINE",
"595 84 OFFCURVE",
"578 121 OFFCURVE",
"569 137 CURVE",
"445 100 LINE",
"490 23 LINE",
"488 564 LINE",
"478 596 LINE",
"497 765 LINE",
"479 780 OFFCURVE",
"424 815 OFFCURVE",
"404 817 CURVE",
"269 751 LINE",
"272 720 OFFCURVE",
"289 688 OFFCURVE",
"298 672 CURVE",
"422 704 LINE",
"377 781 LINE",
"387 557 LINE",
"370 39 LINE"
);
}
);
};
components = (
{
name = rounded.a;
transform = "{1, 0, 0, 1, 0, 0}";
}
);
layerId = "B08EA6CB-0345-4FE8-BF44-53271D6C1876";
name = Regular;
paths = (
{
closed = 1;
nodes = (
"484 779 OFFCURVE",
"429 814 OFFCURVE",
"409 816 CURVE",
"274 750 LINE",
"277 719 OFFCURVE",
"294 688 OFFCURVE",
"303 672 CURVE",
"427 704 LINE",
"382 780 LINE",
"384 239 LINE",
"394 207 LINE",
"375 36 LINE",
"393 21 OFFCURVE",
"448 -14 OFFCURVE",
"468 -16 CURVE",
"603 50 LINE",
"600 81 OFFCURVE",
"583 113 OFFCURVE",
"574 129 CURVE",
"450 97 LINE",
"495 20 LINE",
"485 246 LINE",
"502 764 LINE"
);
}
);
width = 588;
}
);
rightMetricsKey = l;
unicode = 0064;
},
{
color = 1;
glyphname = g;
lastChange = "2015-08-27 14:27:41 +0000";
layers = (
{
background = {
paths = (
{
closed = 1;
nodes = (
"335 527 OFFCURVE",
"225 516 OFFCURVE",
"118 502 CURVE",
"81 469 OFFCURVE",
"63 436 OFFCURVE",
"49 403 CURVE",
"33 107 LINE",
"45 60 OFFCURVE",
"90 2 OFFCURVE",
"120 -14 CURVE",
"214 -14 OFFCURVE",
"442 174 OFFCURVE",
"492 417 CURVE",
"489 432 OFFCURVE",
"462 468 OFFCURVE",
"441 492 CURVE",
"401 492 LINE",
"401 349 OFFCURVE",
"258 128 OFFCURVE",
"167 106 CURVE SMOOTH",
"144 100 OFFCURVE",
"126 279 OFFCURVE",
"195 427 CURVE",
"153 389 LINE",
"240 409 OFFCURVE",
"310 412 OFFCURVE",
"388 401 CURVE",
"441 492 LINE"
);
},
{
closed = 1;
nodes = (
"316 -16 OFFCURVE",
"304 -68 OFFCURVE",
"277 -125 CURVE",
"319 -87 LINE",
"232 -107 OFFCURVE",
"118 -106 OFFCURVE",
"40 -95 CURVE",
"33 -127 OFFCURVE",
"29 -158 OFFCURVE",
"31 -190 CURVE",
"137 -225 OFFCURVE",
"247 -214 OFFCURVE",
"354 -200 CURVE",
"391 -167 OFFCURVE",
"419 -134 OFFCURVE",
"433 -101 CURVE",
"441 43 LINE",
"432 246 LINE",
"441 492 LINE",
"411 500 OFFCURVE",
"358 500 OFFCURVE",
"328 492 CURVE",
"331 239 LINE",
"341 207 LINE",
"322 38 LINE"
);
}
);
};
components = (
{
name = rounded.a;
transform = "{1, 0, 0, 1, 0, 0}";
}
);
layerId = "B08EA6CB-0345-4FE8-BF44-53271D6C1876";
name = Regular;
paths = (
{
closed = 1;
nodes = (
"314 -16 OFFCURVE",
"302 -68 OFFCURVE",
"275 -125 CURVE",
"317 -87 LINE",
"230 -107 OFFCURVE",
"116 -113 OFFCURVE",
"38 -109 CURVE",
"31 -141 OFFCURVE",
"27 -158 OFFCURVE",
"29 -190 CURVE",
"135 -225 OFFCURVE",
"245 -214 OFFCURVE",
"352 -200 CURVE",
"389 -167 OFFCURVE",
"417 -134 OFFCURVE",
"431 -101 CURVE",
"430 246 LINE",
"439 492 LINE",
"409 500 OFFCURVE",
"356 500 OFFCURVE",
"326 492 CURVE",
"329 239 LINE",
"339 207 LINE",
"320 38 LINE"
);
}
);
width = 522;
},
{
associatedMasterId = "B08EA6CB-0345-4FE8-BF44-53271D6C1876";
layerId = "56A0EA90-2111-4E2D-A051-BD4ABD74C590";
name = "Regular Jul 12 15, 23:51";
paths = (
{
closed = 1;
nodes = (
"332 527 OFFCURVE",
"222 516 OFFCURVE",
"115 502 CURVE",
"78 469 OFFCURVE",
"60 436 OFFCURVE",
"46 403 CURVE",
"30 107 LINE",
"42 60 OFFCURVE",
"87 2 OFFCURVE",
"117 -14 CURVE",
"211 -14 OFFCURVE",
"439 174 OFFCURVE",
"489 417 CURVE",
"486 432 OFFCURVE",
"459 468 OFFCURVE",
"438 492 CURVE",
"398 492 LINE",
"398 349 OFFCURVE",
"255 128 OFFCURVE",
"164 106 CURVE SMOOTH",
"141 100 OFFCURVE",
"123 279 OFFCURVE",
"192 427 CURVE",
"150 389 LINE",
"237 409 OFFCURVE",
"307 412 OFFCURVE",
"385 401 CURVE",
"438 492 LINE"
);
},
{
closed = 1;
nodes = (
"313 -16 OFFCURVE",
"301 -68 OFFCURVE",
"274 -125 CURVE",
"316 -87 LINE",
"229 -107 OFFCURVE",
"116 -106 OFFCURVE",
"38 -95 CURVE",
"30 -127 OFFCURVE",
"26 -158 OFFCURVE",
"28 -190 CURVE",
"134 -225 OFFCURVE",
"244 -214 OFFCURVE",
"351 -200 CURVE",
"388 -167 OFFCURVE",
"416 -134 OFFCURVE",
"430 -101 CURVE",
"438 43 LINE",
"429 246 LINE",
"438 492 LINE",
"408 500 OFFCURVE",
"355 500 OFFCURVE",
"325 492 CURVE",
"328 239 LINE",
"338 207 LINE",
"319 38 LINE"
);
}
);
width = 600;
}
);
unicode = 0067;
},
{
color = 1;
glyphname = i;
lastChange = "2015-08-17 16:46:52 +0000";
layers = (
{
background = {
paths = (
{
closed = 1;
nodes = (
"228 464 LINE",
"210 479 OFFCURVE",
"155 514 OFFCURVE",
"135 516 CURVE",
"0 450 LINE",
"3 419 OFFCURVE",
"20 382 OFFCURVE",
"29 366 CURVE",
"153 403 LINE",
"108 480 LINE",
"128 236 LINE",
"110 38 LINE",
"128 23 OFFCURVE",
"183 -12 OFFCURVE",
"203 -14 CURVE",
"338 52 LINE",
"335 83 OFFCURVE",
"318 120 OFFCURVE",
"309 136 CURVE",
"185 99 LINE",
"230 22 LINE",
"220 246 LINE"
);
}
);
};
layerId = "B08EA6CB-0345-4FE8-BF44-53271D6C1876";
name = Regular;
paths = (
{
closed = 1;
nodes = (
"210 569 OFFCURVE",
"257 623 OFFCURVE",
"256 658 CURVE",
"251 689 OFFCURVE",
"194 735 OFFCURVE",
"163 734 CURVE",
"131 729 OFFCURVE",
"85 669 OFFCURVE",
"86 638 CURVE",
"113 606 OFFCURVE",
"143 583 OFFCURVE",
"180 564 CURVE"
);
},
{
closed = 1;
nodes = (
"219 263 LINE",
"228 464 LINE",
"210 479 OFFCURVE",
"155 514 OFFCURVE",
"135 516 CURVE",
"0 450 LINE",
"3 419 OFFCURVE",
"20 382 OFFCURVE",
"29 366 CURVE",
"153 403 LINE",
"108 480 LINE",
"118 256 LINE",
"78 76 LINE",
"101 33 OFFCURVE",
"131 3 OFFCURVE",
"166 -14 CURVE",
"313 18 LINE",
"314 55 OFFCURVE",
"310 84 OFFCURVE",
"304 96 CURVE",
"195 99 LINE",
"220 54 LINE"
);
}
);
width = 298;
}
);
rightMetricsKey = n;
unicode = 0069;
},
{
color = 1;
glyphname = j;
lastChange = "2015-08-17 16:46:52 +0000";
layers = (
{
background = {
paths = (
{
closed = 1;
nodes = (
"139 -208 OFFCURVE",
"192 -208 OFFCURVE",
"222 -200 CURVE",
"219 63 LINE",
"209 95 LINE",
"228 464 LINE",
"210 479 OFFCURVE",
"155 514 OFFCURVE",
"135 516 CURVE",
"0 450 LINE",
"3 419 OFFCURVE",
"20 382 OFFCURVE",
"29 366 CURVE",
"153 403 LINE",
"108 480 LINE",
"118 56 LINE",
"109 -200 LINE"
);
},
{
closed = 1;
nodes = (
"348 184 OFFCURVE",
"319 237 OFFCURVE",
"305 254 CURVE",
"204 180 OFFCURVE",
"81 44 OFFCURVE",
"48 -115 CURVE",
"51 -130 OFFCURVE",
"88 -176 OFFCURVE",
"109 -200 CURVE",
"149 -200 LINE",
"149 -151 OFFCURVE",
"160 -67 OFFCURVE",
"189 0 CURVE",
"234 68 OFFCURVE",
"263 95 OFFCURVE",
"360 154 CURVE"
);
},
{
closed = 1;
nodes = (
"210 569 OFFCURVE",
"257 623 OFFCURVE",
"256 658 CURVE",
"251 689 OFFCURVE",
"194 735 OFFCURVE",
"163 734 CURVE",
"131 729 OFFCURVE",
"85 669 OFFCURVE",
"86 638 CURVE",
"113 606 OFFCURVE",
"143 583 OFFCURVE",
"180 564 CURVE"
);
}
);
};
layerId = "B08EA6CB-0345-4FE8-BF44-53271D6C1876";
name = Regular;
paths = (
{
closed = 1;
nodes = (
"139 -208 OFFCURVE",
"192 -208 OFFCURVE",
"222 -200 CURVE",
"219 63 LINE",
"209 95 LINE",
"228 464 LINE",
"210 479 OFFCURVE",
"155 514 OFFCURVE",
"135 516 CURVE",
"0 450 LINE",
"3 419 OFFCURVE",
"20 382 OFFCURVE",
"29 366 CURVE",
"153 403 LINE",
"108 480 LINE",
"118 56 LINE",
"109 -200 LINE"
);
},
{
closed = 1;
nodes = (
"343 192 OFFCURVE",
"329 224 OFFCURVE",
"308 246 CURVE",
"259 210 OFFCURVE",
"214 158 OFFCURVE",
"167 96 CURVE",
"164 92 OFFCURVE",
"147 96 OFFCURVE",
"144 91 CURVE SMOOTH",
"100 31 OFFCURVE",
"64 -40 OFFCURVE",
"48 -115 CURVE",
"51 -130 OFFCURVE",
"88 -176 OFFCURVE",
"109 -200 CURVE",
"149 -200 LINE",
"149 -151 OFFCURVE",
"151 -44 OFFCURVE",
"180 23 CURVE",
"353 155 LINE"
);
},
{
closed = 1;
nodes = (
"210 569 OFFCURVE",
"257 623 OFFCURVE",
"256 658 CURVE",
"251 689 OFFCURVE",
"194 735 OFFCURVE",
"163 734 CURVE",
"131 729 OFFCURVE",
"85 669 OFFCURVE",
"86 638 CURVE",
"113 606 OFFCURVE",
"143 583 OFFCURVE",
"180 564 CURVE"
);
}
);
width = 310;
}
);
leftMetricsKey = n;
unicode = 006A;
},
{
color = 1;
glyphname = k;
lastChange = "2015-08-27 14:35:24 +0000";
layers = (
{
layerId = "B08EA6CB-0345-4FE8-BF44-53271D6C1876";
leftMetricsKey = l;
name = Regular;
paths = (
{
closed = 1;
nodes = (
"405 440 OFFCURVE",
"108 297 OFFCURVE",
"48 85 CURVE",
"51 70 OFFCURVE",
"78 24 OFFCURVE",
"99 0 CURVE",
"139 0 LINE",
"171 155 OFFCURVE",
"257 240 OFFCURVE",
"347 293 CURVE",
"388 315 LINE",
"445 336 OFFCURVE",
"501 358 OFFCURVE",
"544 378 CURVE",
"545 420 OFFCURVE",
"533 458 OFFCURVE",
"519 500 CURVE"
);
},
{
closed = 1;
nodes = (
"363 437 OFFCURVE",
"349 398 OFFCURVE",
"329 316 CURVE",
"276 226 OFFCURVE",
"280 162 OFFCURVE",
"308 74 CURVE",
"338 41 OFFCURVE",
"400 -12 OFFCURVE",
"457 -16 CURVE",
"593 50 LINE",
"590 81 OFFCURVE",
"573 113 OFFCURVE",
"564 129 CURVE",
"405 88 LINE",
"500 37 LINE",
"377 133 OFFCURVE",
"383 181 OFFCURVE",
"412 324 CURVE",
"457 400 OFFCURVE",
"491 449 OFFCURVE",
"519 500 CURVE",
"489 506 OFFCURVE",
"443 506 OFFCURVE",
"413 500 CURVE"
);
},
{
closed = 1;
nodes = (
"200 779 OFFCURVE",
"145 814 OFFCURVE",
"125 816 CURVE",
"-10 750 LINE",
"-7 719 OFFCURVE",
"10 688 OFFCURVE",
"19 672 CURVE",
"143 704 LINE",
"98 780 LINE",
"108 256 LINE",
"99 0 LINE",
"129 -8 OFFCURVE",
"182 -8 OFFCURVE",
"212 0 CURVE",
"209 263 LINE",
"199 295 LINE",
"218 764 LINE"
);
}
);
width = 583;
}
);
leftMetricsKey = l;
unicode = 006B;
},
{
color = 1;
glyphname = l;
lastChange = "2015-08-17 16:46:52 +0000";
layers = (
{
background = {
paths = (
{
closed = 1;
nodes = (
"186 688 LINE",
"168 703 OFFCURVE",
"142 714 OFFCURVE",
"122 716 CURVE",
"-5 690 LINE",
"-3 678 OFFCURVE",
"0 655 OFFCURVE",
"6 643 CURVE",
"140 643 LINE",
"93 680 LINE",
"93 349 LINE",
"89 14 LINE",
"107 -1 OFFCURVE",
"135 -12 OFFCURVE",
"155 -14 CURVE",
"282 12 LINE",
"280 24 OFFCURVE",
"277 47 OFFCURVE",
"271 59 CURVE",
"137 59 LINE",
"182 22 LINE",
"172 353 LINE"
);
}
);
};
layerId = "B08EA6CB-0345-4FE8-BF44-53271D6C1876";
name = Regular;
paths = (
{
closed = 1;
nodes = (
"209 413 LINE",
"218 764 LINE",
"200 779 OFFCURVE",
"145 814 OFFCURVE",
"125 816 CURVE",
"-10 750 LINE",
"-7 719 OFFCURVE",
"10 682 OFFCURVE",
"19 666 CURVE",
"143 703 LINE",
"98 780 LINE",
"108 406 LINE",
"68 76 LINE",
"91 33 OFFCURVE",
"121 3 OFFCURVE",
"156 -14 CURVE",
"303 18 LINE",
"304 55 OFFCURVE",
"300 84 OFFCURVE",
"294 96 CURVE",
"185 99 LINE",
"210 54 LINE"
);
}
);
width = 288;
}
);
rightMetricsKey = n;
unicode = 006C;
},
{
color = 1;
glyphname = m;
lastChange = "2015-08-17 16:46:52 +0000";
layers = (
{
background = {
paths = (
{
closed = 1;
nodes = (
"144 -8 OFFCURVE",
"197 -8 OFFCURVE",
"227 0 CURVE",
"224 263 LINE",
"214 295 LINE",
"224 488 LINE",
"206 503 OFFCURVE",
"160 514 OFFCURVE",
"140 516 CURVE",
"5 490 LINE",
"4 453 OFFCURVE",
"10 415 OFFCURVE",
"16 403 CURVE",
"158 403 LINE",
"113 480 LINE",
"123 256 LINE",
"114 0 LINE"
);
},
{
closed = 1;
nodes = (
"404 0 LINE",
"438 -5 OFFCURVE",
"492 -7 OFFCURVE",
"522 0 CURVE",
"522 395 LINE",
"510 442 OFFCURVE",
"465 500 OFFCURVE",
"435 516 CURVE",
"301 516 OFFCURVE",
"113 328 OFFCURVE",
"63 85 CURVE",
"66 70 OFFCURVE",
"93 24 OFFCURVE",
"114 0 CURVE",
"154 0 LINE",
"154 143 OFFCURVE",
"257 374 OFFCURVE",
"388 396 CURVE SMOOTH",
"411 400 OFFCURVE",
"429 223 OFFCURVE",
"360 75 CURVE"
);
},
{
closed = 1;
nodes = (
"767 98 LINE",
"802 53 LINE",
"812 395 LINE",
"800 442 OFFCURVE",
"755 500 OFFCURVE",
"725 516 CURVE",
"591 516 OFFCURVE",
"403 328 OFFCURVE",
"353 85 CURVE",
"356 70 OFFCURVE",
"383 24 OFFCURVE",
"404 0 CURVE",
"444 0 LINE",
"444 143 OFFCURVE",
"547 374 OFFCURVE",
"678 396 CURVE SMOOTH",
"701 400 OFFCURVE",
"719 223 OFFCURVE",
"650 75 CURVE",
"656 45 OFFCURVE",
"663 25 OFFCURVE",
"676 12 CURVE SMOOTH",
"691 -4 OFFCURVE",
"716 -11 OFFCURVE",
"758 -15 CURVE",
"893 11 LINE",
"894 48 OFFCURVE",
"888 86 OFFCURVE",
"882 98 CURVE"
);
}
);
};
layerId = "B08EA6CB-0345-4FE8-BF44-53271D6C1876";
name = Regular;
paths = (
{
closed = 1;
nodes = (
"139 -8 OFFCURVE",
"192 -8 OFFCURVE",
"222 0 CURVE",
"219 263 LINE",
"209 295 LINE",
"228 464 LINE",
"210 479 OFFCURVE",
"155 514 OFFCURVE",
"135 516 CURVE",
"0 450 LINE",
"3 419 OFFCURVE",
"20 382 OFFCURVE",
"29 366 CURVE",
"153 403 LINE",
"108 480 LINE",
"118 256 LINE",
"109 0 LINE"
);
},
{
closed = 1;
nodes = (
"487 53 LINE",
"507 395 LINE",
"495 442 OFFCURVE",
"450 500 OFFCURVE",
"420 516 CURVE",
"326 516 OFFCURVE",
"108 328 OFFCURVE",
"58 85 CURVE",
"61 70 OFFCURVE",
"88 24 OFFCURVE",
"109 0 CURVE",
"149 0 LINE",
"149 143 OFFCURVE",
"282 374 OFFCURVE",
"373 396 CURVE SMOOTH",
"396 402 OFFCURVE",
"414 223 OFFCURVE",
"345 75 CURVE"
);
},
{
closed = 1;
nodes = (
"423 -8 OFFCURVE",
"476 -8 OFFCURVE",
"506 0 CURVE",
"503 263 LINE",
"493 295 LINE",
"402 256 LINE",
"393 0 LINE"
);
},
{
closed = 1;
nodes = (
"746 98 LINE",
"771 53 LINE",
"791 395 LINE",
"779 442 OFFCURVE",
"734 500 OFFCURVE",
"704 516 CURVE",
"610 516 OFFCURVE",
"392 328 OFFCURVE",
"342 85 CURVE",
"345 70 OFFCURVE",
"372 24 OFFCURVE",
"393 0 CURVE",
"433 0 LINE",
"433 143 OFFCURVE",
"566 374 OFFCURVE",
"657 396 CURVE SMOOTH",
"680 402 OFFCURVE",
"698 223 OFFCURVE",
"629 75 CURVE",
"652 32 OFFCURVE",
"682 2 OFFCURVE",
"717 -15 CURVE",
"864 17 LINE",
"865 54 OFFCURVE",
"861 83 OFFCURVE",
"855 95 CURVE"
);
}
);
width = 849;
}
);
leftMetricsKey = n;
rightMetricsKey = n;
unicode = 006D;
},
{
color = 1;
glyphname = n;
lastChange = "2015-08-17 16:46:52 +0000";
layers = (
{
background = {
paths = (
{
closed = 1;
nodes = (
"139 -8 OFFCURVE",
"192 -8 OFFCURVE",
"222 0 CURVE",
"219 263 LINE",
"209 295 LINE",
"228 464 LINE",
"210 479 OFFCURVE",
"155 514 OFFCURVE",
"135 516 CURVE",
"0 450 LINE",
"3 419 OFFCURVE",
"20 382 OFFCURVE",
"29 366 CURVE",
"153 403 LINE",
"108 480 LINE",
"118 256 LINE",
"109 0 LINE"
);
},
{
closed = 1;
nodes = (
"482 98 LINE",
"517 53 LINE",
"527 395 LINE",
"515 442 OFFCURVE",
"470 500 OFFCURVE",
"440 516 CURVE",
"306 516 OFFCURVE",
"108 328 OFFCURVE",
"58 85 CURVE",
"61 70 OFFCURVE",
"88 24 OFFCURVE",
"109 0 CURVE",
"149 0 LINE",
"149 143 OFFCURVE",
"262 374 OFFCURVE",
"393 396 CURVE SMOOTH",
"416 400 OFFCURVE",
"434 223 OFFCURVE",
"365 75 CURVE",
"371 45 OFFCURVE",
"378 25 OFFCURVE",
"391 12 CURVE SMOOTH",
"406 -4 OFFCURVE",
"431 -11 OFFCURVE",
"473 -15 CURVE",
"608 11 LINE",
"609 48 OFFCURVE",
"603 86 OFFCURVE",
"597 98 CURVE"
);
}
);
};
layerId = "B08EA6CB-0345-4FE8-BF44-53271D6C1876";
name = Regular;
paths = (
{
closed = 1;
nodes = (
"139 -8 OFFCURVE",
"192 -8 OFFCURVE",
"222 0 CURVE",
"219 263 LINE",
"209 295 LINE",
"228 464 LINE",
"210 479 OFFCURVE",
"155 514 OFFCURVE",
"135 516 CURVE",
"0 450 LINE",
"3 419 OFFCURVE",
"20 382 OFFCURVE",
"29 366 CURVE",
"153 403 LINE",
"108 480 LINE",
"118 256 LINE",
"109 0 LINE"
);
},
{
closed = 1;
nodes = (
"482 98 LINE",
"507 53 LINE",
"527 395 LINE",
"515 442 OFFCURVE",
"470 500 OFFCURVE",
"440 516 CURVE",
"346 516 OFFCURVE",
"108 328 OFFCURVE",
"58 85 CURVE",
"61 70 OFFCURVE",
"88 24 OFFCURVE",
"109 0 CURVE",
"149 0 LINE",
"149 143 OFFCURVE",
"302 374 OFFCURVE",
"393 396 CURVE SMOOTH",
"416 402 OFFCURVE",
"434 223 OFFCURVE",
"365 75 CURVE",
"388 32 OFFCURVE",
"418 2 OFFCURVE",
"453 -15 CURVE",
"600 17 LINE",
"601 54 OFFCURVE",
"597 83 OFFCURVE",
"591 95 CURVE"
);
}
);
width = 585;
}
);
unicode = 006E;
},
{
color = 1;
glyphname = p;
lastChange = "2015-08-27 14:27:41 +0000";
layers = (
{
background = {
paths = (
{
closed = 1;
nodes = (
"205 116 LINE",
"249 242 OFFCURVE",
"347 376 OFFCURVE",
"416 393 CURVE SMOOTH",
"439 399 OFFCURVE",
"457 220 OFFCURVE",
"388 72 CURVE",
"430 109 LINE",
"343 89 OFFCURVE",
"273 86 OFFCURVE",
"195 97 CURVE",
"142 7 LINE",
"248 -27 OFFCURVE",
"358 -16 OFFCURVE",
"465 -2 CURVE",
"502 31 OFFCURVE",
"520 62 OFFCURVE",
"534 95 CURVE",
"550 392 LINE",
"538 439 OFFCURVE",
"493 500 OFFCURVE",
"463 516 CURVE",
"386 516 OFFCURVE",
"219 387 OFFCURVE",
"133 207 CURVE"
);
}
);
};
layerId = "B08EA6CB-0345-4FE8-BF44-53271D6C1876";
name = Regular;
paths = (
{
closed = 1;
nodes = (
"102 -162 LINE",
"115 -180 OFFCURVE",
"146 -207 OFFCURVE",
"166 -215 CURVE",
"222 -200 LINE",
"219 63 LINE",
"209 275 LINE",
"228 464 LINE",
"210 479 OFFCURVE",
"155 514 OFFCURVE",
"135 516 CURVE",
"0 450 LINE",
"3 419 OFFCURVE",
"20 388 OFFCURVE",
"29 372 CURVE",
"153 404 LINE",
"108 480 LINE",
"120 84 LINE"
);
},
{
closed = 1;
nodes = (
"205 116 LINE",
"249 242 OFFCURVE",
"347 376 OFFCURVE",
"416 393 CURVE SMOOTH",
"439 399 OFFCURVE",
"457 219 OFFCURVE",
"388 71 CURVE",
"430 109 LINE",
"343 89 OFFCURVE",
"273 86 OFFCURVE",
"195 97 CURVE",
"142 7 LINE",
"247 -21 OFFCURVE",
"358 -16 OFFCURVE",
"465 -2 CURVE",
"502 31 OFFCURVE",
"520 62 OFFCURVE",
"534 95 CURVE",
"550 392 LINE",
"538 439 OFFCURVE",
"493 500 OFFCURVE",
"463 516 CURVE",
"386 516 OFFCURVE",
"217 386 OFFCURVE",
"132 204 CURVE"
);
}
);
width = 580;
},
{
associatedMasterId = "B08EA6CB-0345-4FE8-BF44-53271D6C1876";
background = {
paths = (
{
closed = 1;
nodes = (
"219 163 LINE",
"228 464 LINE",
"210 479 OFFCURVE",
"155 514 OFFCURVE",
"135 516 CURVE",
"0 450 LINE",
"3 419 OFFCURVE",
"20 382 OFFCURVE",
"29 366 CURVE",
"153 403 LINE",
"108 480 LINE",
"118 156 LINE",
"78 -124 LINE",
"101 -167 OFFCURVE",
"131 -197 OFFCURVE",
"166 -214 CURVE",
"313 -182 LINE",
"314 -145 OFFCURVE",
"310 -116 OFFCURVE",
"304 -104 CURVE",
"195 -101 LINE",
"220 -146 LINE"
);
}
);
};
layerId = "711A8254-64A6-4ACE-AC44-D0FAC4875A1D";
name = "Regular Jul 12 15, 22:54";
paths = (
{
closed = 1;
nodes = (
"277 -6 OFFCURVE",
"367 -23 OFFCURVE",
"474 -9 CURVE",
"511 24 OFFCURVE",
"529 57 OFFCURVE",
"543 90 CURVE",
"559 394 LINE",
"547 441 OFFCURVE",
"502 499 OFFCURVE",
"472 515 CURVE",
"378 515 OFFCURVE",
"170 327 OFFCURVE",
"120 84 CURVE",
"123 69 OFFCURVE",
"150 23 OFFCURVE",
"171 -1 CURVE",
"204 9 LINE",
"204 152 OFFCURVE",
"334 373 OFFCURVE",
"425 395 CURVE SMOOTH",
"448 401 OFFCURVE",
"466 214 OFFCURVE",
"397 66 CURVE",
"439 104 LINE",
"352 84 OFFCURVE",
"302 109 OFFCURVE",
"224 120 CURVE",
"171 29 LINE"
);
},
{
closed = 1;
nodes = (
"139 -208 OFFCURVE",
"192 -208 OFFCURVE",
"222 -200 CURVE",
"219 63 LINE",
"209 275 LINE",
"228 464 LINE",
"210 479 OFFCURVE",
"155 514 OFFCURVE",
"135 516 CURVE",
"0 450 LINE",
"3 419 OFFCURVE",
"20 382 OFFCURVE",
"29 366 CURVE",
"153 403 LINE",
"108 480 LINE",
"120 84 LINE",
"109 -200 LINE"
);
}
);
width = 589;
},
{
associatedMasterId = "B08EA6CB-0345-4FE8-BF44-53271D6C1876";
background = {
paths = (
{
closed = 1;
nodes = (
"277 -6 OFFCURVE",
"367 -23 OFFCURVE",
"474 -9 CURVE",
"511 24 OFFCURVE",
"529 57 OFFCURVE",
"543 90 CURVE",
"549 394 LINE",
"537 441 OFFCURVE",
"492 499 OFFCURVE",
"462 515 CURVE",
"368 515 OFFCURVE",
"170 327 OFFCURVE",
"120 84 CURVE",
"123 69 OFFCURVE",
"150 23 OFFCURVE",
"171 -1 CURVE",
"204 9 LINE",
"204 152 OFFCURVE",
"324 373 OFFCURVE",
"415 395 CURVE SMOOTH",
"438 401 OFFCURVE",
"466 214 OFFCURVE",
"397 66 CURVE",
"439 104 LINE",
"352 84 OFFCURVE",
"302 109 OFFCURVE",
"224 120 CURVE",
"171 29 LINE"
);
},
{
closed = 1;
nodes = (
"139 -208 OFFCURVE",
"192 -208 OFFCURVE",
"222 -200 CURVE",
"219 63 LINE",
"209 275 LINE",
"228 464 LINE",
"210 479 OFFCURVE",
"155 514 OFFCURVE",
"135 516 CURVE",
"0 450 LINE",
"3 419 OFFCURVE",
"20 382 OFFCURVE",
"29 366 CURVE",
"153 403 LINE",
"108 480 LINE",
"120 84 LINE",
"109 -200 LINE"
);
}
);
};
layerId = "5BD12545-BE74-4F09-9CD4-68182E2525F0";
name = "Regular Jul 15 15, 22:08";
paths = (
{
closed = 1;
nodes = (
"277 -6 OFFCURVE",
"367 -23 OFFCURVE",
"474 -9 CURVE",
"511 24 OFFCURVE",
"529 57 OFFCURVE",
"543 90 CURVE",
"549 394 LINE",
"537 441 OFFCURVE",
"492 499 OFFCURVE",
"462 515 CURVE",
"368 515 OFFCURVE",
"170 327 OFFCURVE",
"120 84 CURVE",
"123 69 OFFCURVE",
"150 23 OFFCURVE",
"171 -1 CURVE",
"204 9 LINE",
"204 152 OFFCURVE",
"324 373 OFFCURVE",
"415 395 CURVE SMOOTH",
"438 401 OFFCURVE",
"466 214 OFFCURVE",
"397 66 CURVE",
"439 104 LINE",
"352 84 OFFCURVE",
"302 109 OFFCURVE",
"224 120 CURVE",
"171 29 LINE"
);
},
{
closed = 1;
nodes = (
"210 479 OFFCURVE",
"155 514 OFFCURVE",
"135 516 CURVE",
"0 450 LINE",
"3 419 OFFCURVE",
"20 388 OFFCURVE",
"29 372 CURVE",
"153 404 LINE",
"108 480 LINE",
"120 84 LINE",
"109 -200 LINE",
"139 -208 OFFCURVE",
"192 -208 OFFCURVE",
"222 -200 CURVE",
"219 63 LINE",
"209 275 LINE",
"228 464 LINE"
);
}
);
width = 589;
}
);
leftMetricsKey = n;
unicode = 0070;
},
{
color = 1;
glyphname = q;
lastChange = "2015-08-27 14:27:41 +0000";
layers = (
{
associatedMasterId = "B08EA6CB-0345-4FE8-BF44-53271D6C1876";
background = {
paths = (
{
closed = 1;
nodes = (
"313 -16 OFFCURVE",
"301 -68 OFFCURVE",
"274 -125 CURVE",
"316 -87 LINE",
"229 -107 OFFCURVE",
"115 -113 OFFCURVE",
"37 -109 CURVE",
"30 -141 OFFCURVE",
"26 -158 OFFCURVE",
"28 -190 CURVE",
"134 -225 OFFCURVE",
"244 -214 OFFCURVE",
"351 -200 CURVE",
"388 -167 OFFCURVE",
"416 -134 OFFCURVE",
"430 -101 CURVE",
"429 246 LINE",
"438 492 LINE",
"408 500 OFFCURVE",
"355 500 OFFCURVE",
"325 492 CURVE",
"328 239 LINE",
"338 207 LINE",
"319 38 LINE"
);
}
);
};
layerId = "4F61CF58-890F-4EC3-AA02-CB549808ACD8";
name = "Regular Jul 14 15, 23:24";
paths = (
{
closed = 1;
nodes = (
"332 527 OFFCURVE",
"222 516 OFFCURVE",
"115 502 CURVE",
"78 469 OFFCURVE",
"60 436 OFFCURVE",
"46 403 CURVE",
"30 107 LINE",
"42 60 OFFCURVE",
"87 2 OFFCURVE",
"117 -14 CURVE",
"211 -14 OFFCURVE",
"439 174 OFFCURVE",
"489 417 CURVE",
"486 432 OFFCURVE",
"459 468 OFFCURVE",
"438 492 CURVE",
"398 492 LINE",
"398 349 OFFCURVE",
"255 128 OFFCURVE",
"164 106 CURVE SMOOTH",
"141 100 OFFCURVE",
"123 279 OFFCURVE",
"192 427 CURVE",
"150 389 LINE",
"237 409 OFFCURVE",
"307 412 OFFCURVE",
"385 401 CURVE",
"438 492 LINE"
);
},
{
closed = 1;
nodes = (
"355 -208 OFFCURVE",
"408 -208 OFFCURVE",
"438 -200 CURVE",
"435 63 LINE",
"425 275 LINE",
"444 464 LINE",
"324 480 LINE",
"336 84 LINE",
"325 -200 LINE"
);
}
);
width = 519;
},
{
associatedMasterId = "B08EA6CB-0345-4FE8-BF44-53271D6C1876";
background = {
paths = (
{
closed = 1;
nodes = (
"313 -16 OFFCURVE",
"301 -68 OFFCURVE",
"274 -125 CURVE",
"316 -87 LINE",
"229 -107 OFFCURVE",
"115 -113 OFFCURVE",
"37 -109 CURVE",
"30 -141 OFFCURVE",
"26 -158 OFFCURVE",
"28 -190 CURVE",
"134 -225 OFFCURVE",
"244 -214 OFFCURVE",
"351 -200 CURVE",
"388 -167 OFFCURVE",
"416 -134 OFFCURVE",
"430 -101 CURVE",
"429 246 LINE",
"438 492 LINE",
"408 500 OFFCURVE",
"355 500 OFFCURVE",
"325 492 CURVE",
"328 239 LINE",
"338 207 LINE",
"319 38 LINE"
);
}
);
};
layerId = "21850F23-DBDC-431C-B2E9-1883BEB3A922";
name = "Regular Jul 14 15, 23:30";
paths = (
{
closed = 1;
nodes = (
"332 527 OFFCURVE",
"222 516 OFFCURVE",
"115 502 CURVE",
"78 469 OFFCURVE",
"60 436 OFFCURVE",
"46 403 CURVE",
"30 107 LINE",
"42 60 OFFCURVE",
"87 2 OFFCURVE",
"117 -14 CURVE",
"211 -14 OFFCURVE",
"439 174 OFFCURVE",
"489 417 CURVE",
"486 432 OFFCURVE",
"459 468 OFFCURVE",
"438 492 CURVE",
"398 492 LINE",
"398 349 OFFCURVE",
"255 128 OFFCURVE",
"164 106 CURVE SMOOTH",
"141 100 OFFCURVE",
"123 279 OFFCURVE",
"192 427 CURVE",
"150 389 LINE",
"237 409 OFFCURVE",
"307 412 OFFCURVE",
"385 401 CURVE",
"438 492 LINE"
);
},
{
closed = 1;
nodes = (
"345 -208 OFFCURVE",
"408 -208 OFFCURVE",
"438 -200 CURVE",
"435 63 LINE",
"425 275 LINE",
"444 464 LINE",
"324 480 LINE",
"336 84 LINE",
"315 -200 LINE"
);
}
);
width = 519;
},
{
associatedMasterId = "B08EA6CB-0345-4FE8-BF44-53271D6C1876";
background = {
paths = (
{
closed = 1;
nodes = (
"332 527 OFFCURVE",
"222 516 OFFCURVE",
"115 502 CURVE",
"78 469 OFFCURVE",
"60 436 OFFCURVE",
"46 403 CURVE",
"30 107 LINE",
"42 60 OFFCURVE",
"87 2 OFFCURVE",
"117 -14 CURVE",
"211 -14 OFFCURVE",
"439 174 OFFCURVE",
"489 417 CURVE",
"486 432 OFFCURVE",
"459 468 OFFCURVE",
"438 492 CURVE",
"398 492 LINE",
"398 349 OFFCURVE",
"255 128 OFFCURVE",
"164 106 CURVE SMOOTH",
"141 100 OFFCURVE",
"123 279 OFFCURVE",
"192 427 CURVE",
"150 389 LINE",
"237 409 OFFCURVE",
"307 412 OFFCURVE",
"385 401 CURVE",
"438 492 LINE"
);
},
{
closed = 1;
nodes = (
"345 -208 OFFCURVE",
"408 -208 OFFCURVE",
"438 -200 CURVE",
"435 63 LINE",
"425 275 LINE",
"444 464 LINE",
"324 480 LINE",
"336 84 LINE",
"315 -200 LINE"
);
}
);
};
layerId = "874E98EB-0FD1-4C25-91B9-5E25B22B3BF5";
name = "Regular Jul 15 15, 21:13";
paths = (
{
closed = 1;
nodes = (
"332 527 OFFCURVE",
"222 516 OFFCURVE",
"115 502 CURVE",
"78 469 OFFCURVE",
"60 436 OFFCURVE",
"46 403 CURVE",
"30 107 LINE",
"42 60 OFFCURVE",
"87 2 OFFCURVE",
"117 -14 CURVE",
"211 -14 OFFCURVE",
"439 174 OFFCURVE",
"489 417 CURVE",
"486 432 OFFCURVE",
"459 468 OFFCURVE",
"438 492 CURVE",
"398 492 LINE",
"398 349 OFFCURVE",
"255 128 OFFCURVE",
"164 106 CURVE SMOOTH",
"141 100 OFFCURVE",
"123 279 OFFCURVE",
"192 427 CURVE",
"150 389 LINE",
"237 409 OFFCURVE",
"307 412 OFFCURVE",
"385 401 CURVE",
"438 492 LINE"
);
},
{
closed = 1;
nodes = (
"375 -208 OFFCURVE",
"438 -208 OFFCURVE",
"468 -200 CURVE",
"465 63 LINE",
"455 275 LINE",
"474 464 LINE",
"354 480 LINE",
"366 84 LINE",
"345 -200 LINE"
);
}
);
width = 519;
},
{
associatedMasterId = "B08EA6CB-0345-4FE8-BF44-53271D6C1876";
background = {
paths = (
{
closed = 1;
nodes = (
"332 527 OFFCURVE",
"222 516 OFFCURVE",
"115 502 CURVE",
"78 469 OFFCURVE",
"60 436 OFFCURVE",
"46 403 CURVE",
"30 107 LINE",
"42 60 OFFCURVE",
"87 2 OFFCURVE",
"117 -14 CURVE",
"211 -14 OFFCURVE",
"439 174 OFFCURVE",
"489 417 CURVE",
"486 432 OFFCURVE",
"459 468 OFFCURVE",
"438 492 CURVE",
"398 492 LINE",
"398 349 OFFCURVE",
"255 128 OFFCURVE",
"164 106 CURVE SMOOTH",
"141 100 OFFCURVE",
"123 279 OFFCURVE",
"192 427 CURVE",
"150 389 LINE",
"237 409 OFFCURVE",
"307 412 OFFCURVE",
"385 401 CURVE",
"438 492 LINE"
);
},
{
closed = 1;
nodes = (
"375 -208 OFFCURVE",
"438 -208 OFFCURVE",
"468 -200 CURVE",
"465 63 LINE",
"455 275 LINE",
"474 464 LINE",
"354 480 LINE",
"366 84 LINE",
"345 -200 LINE"
);
}
);
};
layerId = "E0E608A1-03E5-4A5C-BF04-AB24DED57B67";
name = "Regular Jul 15 15, 21:16";
paths = (
{
closed = 1;
nodes = (
"355 -208 OFFCURVE",
"418 -208 OFFCURVE",
"448 -200 CURVE",
"445 63 LINE",
"435 275 LINE",
"438 500 LINE",
"408 508 OFFCURVE",
"365 508 OFFCURVE",
"335 500 CURVE",
"346 84 LINE",
"325 -200 LINE"
);
},
{
closed = 1;
nodes = (
"332 495 OFFCURVE",
"222 516 OFFCURVE",
"115 502 CURVE",
"78 469 OFFCURVE",
"60 436 OFFCURVE",
"46 403 CURVE",
"30 107 LINE",
"42 60 OFFCURVE",
"87 2 OFFCURVE",
"117 -14 CURVE",
"211 -14 OFFCURVE",
"439 182 OFFCURVE",
"489 425 CURVE",
"486 440 OFFCURVE",
"459 476 OFFCURVE",
"438 500 CURVE",
"398 500 LINE",
"398 357 OFFCURVE",
"255 128 OFFCURVE",
"164 106 CURVE SMOOTH",
"141 100 OFFCURVE",
"123 279 OFFCURVE",
"192 427 CURVE",
"150 389 LINE",
"237 409 OFFCURVE",
"307 372 OFFCURVE",
"385 261 CURVE",
"438 352 LINE"
);
}
);
width = 519;
},
{
background = {
paths = (
{
closed = 0;
nodes = (
"335 115 LINE",
"295 -125 LINE",
"318 -168 OFFCURVE",
"348 -198 OFFCURVE",
"383 -215 CURVE",
"437 -201 LINE",
"436 122 LINE"
);
}
);
};
components = (
{
name = rounded.a;
transform = "{1, 0, 0, 1, 0, 0}";
}
);
layerId = "B08EA6CB-0345-4FE8-BF44-53271D6C1876";
name = Regular;
paths = (
{
closed = 1;
nodes = (
"332 -180 OFFCURVE",
"363 -207 OFFCURVE",
"383 -215 CURVE",
"439 -200 LINE",
"436 63 LINE",
"426 275 LINE",
"440 413 LINE",
"325 480 LINE",
"337 84 LINE",
"319 -162 LINE"
);
}
);
width = 490;
}
);
leftMetricsKey = a;
unicode = 0071;
},
{
color = 3;
glyphname = r;
lastChange = "2015-08-27 14:29:41 +0000";
layers = (
{
background = {
paths = (
{
closed = 1;
nodes = (
"139 -8 OFFCURVE",
"192 -8 OFFCURVE",
"222 0 CURVE",
"219 263 LINE",
"209 295 LINE",
"228 464 LINE",
"210 479 OFFCURVE",
"155 514 OFFCURVE",
"135 516 CURVE",
"0 450 LINE",
"3 419 OFFCURVE",
"20 382 OFFCURVE",
"29 366 CURVE",
"153 403 LINE",
"108 480 LINE",
"118 256 LINE",
"109 0 LINE"
);
},
{
closed = 1;
nodes = (
"344 271 OFFCURVE",
"362 257 OFFCURVE",
"374 246 CURVE",
"408 242 OFFCURVE",
"445 242 OFFCURVE",
"473 248 CURVE",
"477 395 LINE",
"465 442 OFFCURVE",
"420 500 OFFCURVE",
"390 516 CURVE",
"325 516 OFFCURVE",
"249 425 OFFCURVE",
"170 315 CURVE",
"135 282 LINE",
"101 223 OFFCURVE",
"72 156 OFFCURVE",
"58 85 CURVE",
"61 70 OFFCURVE",
"88 24 OFFCURVE",
"109 0 CURVE",
"149 0 LINE",
"149 143 OFFCURVE",
"272 374 OFFCURVE",
"343 396 CURVE SMOOTH",
"352 398 OFFCURVE",
"349 340 OFFCURVE",
"338 286 CURVE"
);
}
);
};
layerId = "B08EA6CB-0345-4FE8-BF44-53271D6C1876";
name = Regular;
paths = (
{
closed = 1;
nodes = (
"344 271 OFFCURVE",
"362 257 OFFCURVE",
"374 246 CURVE",
"408 242 OFFCURVE",
"445 242 OFFCURVE",
"473 248 CURVE",
"477 395 LINE",
"465 442 OFFCURVE",
"420 500 OFFCURVE",
"390 516 CURVE",
"325 516 OFFCURVE",
"249 425 OFFCURVE",
"170 315 CURVE",
"135 282 LINE",
"101 223 OFFCURVE",
"72 156 OFFCURVE",
"58 85 CURVE",
"61 70 OFFCURVE",
"88 24 OFFCURVE",
"109 0 CURVE",
"149 0 LINE",
"149 143 OFFCURVE",
"272 374 OFFCURVE",
"343 396 CURVE SMOOTH",
"352 398 OFFCURVE",
"349 340 OFFCURVE",
"338 286 CURVE"
);
},
{
closed = 1;
nodes = (
"210 479 OFFCURVE",
"155 514 OFFCURVE",
"135 516 CURVE",
"0 450 LINE",
"3 419 OFFCURVE",
"20 388 OFFCURVE",
"29 372 CURVE",
"153 404 LINE",
"108 480 LINE",
"118 256 LINE",
"109 0 LINE",
"139 -8 OFFCURVE",
"192 -8 OFFCURVE",
"222 0 CURVE",
"219 263 LINE",
"209 295 LINE",
"228 464 LINE"
);
}
);
width = 477;
},
{
associatedMasterId = "B08EA6CB-0345-4FE8-BF44-53271D6C1876";
layerId = "CE35E392-84EC-44CB-8799-324378EB335A";
name = "Regular Jul 14 15, 23:07";
paths = (
{
closed = 1;
nodes = (
"139 -8 OFFCURVE",
"192 -8 OFFCURVE",
"222 0 CURVE",
"219 263 LINE",
"209 295 LINE",
"228 464 LINE",
"210 479 OFFCURVE",
"155 514 OFFCURVE",
"135 516 CURVE",
"0 450 LINE",
"3 419 OFFCURVE",
"20 382 OFFCURVE",
"29 366 CURVE",
"153 403 LINE",
"108 480 LINE",
"118 256 LINE",
"109 0 LINE"
);
},
{
closed = 1;
nodes = (
"401 242 OFFCURVE",
"438 242 OFFCURVE",
"475 250 CURVE",
"477 395 LINE",
"465 442 OFFCURVE",
"420 500 OFFCURVE",
"390 516 CURVE",
"316 516 OFFCURVE",
"108 328 OFFCURVE",
"58 85 CURVE",
"61 70 OFFCURVE",
"88 24 OFFCURVE",
"109 0 CURVE",
"149 0 LINE",
"149 143 OFFCURVE",
"272 374 OFFCURVE",
"343 396 CURVE SMOOTH",
"354 399 OFFCURVE",
"364 309 OFFCURVE",
"364 250 CURVE"
);
}
);
width = 477;
},
{
associatedMasterId = "B08EA6CB-0345-4FE8-BF44-53271D6C1876";
background = {
paths = (
{
closed = 1;
nodes = (
"139 -8 OFFCURVE",
"192 -8 OFFCURVE",
"222 0 CURVE",
"219 263 LINE",
"209 295 LINE",
"228 464 LINE",
"210 479 OFFCURVE",
"155 514 OFFCURVE",
"135 516 CURVE",
"0 450 LINE",
"3 419 OFFCURVE",
"20 382 OFFCURVE",
"29 366 CURVE",
"153 403 LINE",
"108 480 LINE",
"118 256 LINE",
"109 0 LINE"
);
},
{
closed = 1;
nodes = (
"401 242 OFFCURVE",
"438 242 OFFCURVE",
"475 250 CURVE",
"477 395 LINE",
"465 442 OFFCURVE",
"420 500 OFFCURVE",
"390 516 CURVE",
"345 516 OFFCURVE",
"249 445 OFFCURVE",
"170 335 CURVE SMOOTH",
"120 265 OFFCURVE",
"77 179 OFFCURVE",
"58 85 CURVE",
"61 70 OFFCURVE",
"88 24 OFFCURVE",
"109 0 CURVE",
"149 0 LINE",
"149 143 OFFCURVE",
"272 374 OFFCURVE",
"343 396 CURVE SMOOTH",
"354 399 OFFCURVE",
"364 309 OFFCURVE",
"364 250 CURVE"
);
}
);
};
layerId = "059B51D8-FC3E-4DFE-B5E6-0DF8212C6FF0";
name = "Regular Jul 14 15, 23:10";
paths = (
{
closed = 1;
nodes = (
"139 -8 OFFCURVE",
"192 -8 OFFCURVE",
"222 0 CURVE",
"219 263 LINE",
"209 295 LINE",
"228 464 LINE",
"210 479 OFFCURVE",
"155 514 OFFCURVE",
"135 516 CURVE",
"0 450 LINE",
"3 419 OFFCURVE",
"20 382 OFFCURVE",
"29 366 CURVE",
"153 403 LINE",
"108 480 LINE",
"118 256 LINE",
"109 0 LINE"
);
},
{
closed = 1;
nodes = (
"401 242 OFFCURVE",
"438 242 OFFCURVE",
"475 250 CURVE",
"477 395 LINE",
"465 442 OFFCURVE",
"420 500 OFFCURVE",
"390 516 CURVE",
"325 516 OFFCURVE",
"249 425 OFFCURVE",
"170 315 CURVE",
"135 282 LINE",
"101 223 OFFCURVE",
"72 156 OFFCURVE",
"58 85 CURVE",
"61 70 OFFCURVE",
"88 24 OFFCURVE",
"109 0 CURVE",
"149 0 LINE",
"149 143 OFFCURVE",
"272 374 OFFCURVE",
"343 396 CURVE SMOOTH",
"354 399 OFFCURVE",
"364 309 OFFCURVE",
"364 250 CURVE"
);
}
);
width = 477;
},
{
associatedMasterId = "B08EA6CB-0345-4FE8-BF44-53271D6C1876";
background = {
paths = (
{
closed = 1;
nodes = (
"139 -8 OFFCURVE",
"192 -8 OFFCURVE",
"222 0 CURVE",
"219 263 LINE",
"209 295 LINE",
"228 464 LINE",
"210 479 OFFCURVE",
"155 514 OFFCURVE",
"135 516 CURVE",
"0 450 LINE",
"3 419 OFFCURVE",
"20 382 OFFCURVE",
"29 366 CURVE",
"153 403 LINE",
"108 480 LINE",
"118 256 LINE",
"109 0 LINE"
);
},
{
closed = 1;
nodes = (
"401 242 OFFCURVE",
"438 242 OFFCURVE",
"475 250 CURVE",
"477 395 LINE",
"465 442 OFFCURVE",
"420 500 OFFCURVE",
"390 516 CURVE",
"345 516 OFFCURVE",
"249 445 OFFCURVE",
"170 335 CURVE SMOOTH",
"120 265 OFFCURVE",
"77 179 OFFCURVE",
"58 85 CURVE",
"61 70 OFFCURVE",
"88 24 OFFCURVE",
"109 0 CURVE",
"149 0 LINE",
"149 143 OFFCURVE",
"272 374 OFFCURVE",
"343 396 CURVE SMOOTH",
"354 399 OFFCURVE",
"364 309 OFFCURVE",
"364 250 CURVE"
);
}
);
};
layerId = "E98C5B0A-5BFC-4D23-AF66-D1F38BE7A6D9";
name = "Regular Jul 14 15, 23:16";
paths = (
{
closed = 1;
nodes = (
"139 -8 OFFCURVE",
"192 -8 OFFCURVE",
"222 0 CURVE",
"219 263 LINE",
"209 295 LINE",
"228 464 LINE",
"210 479 OFFCURVE",
"155 514 OFFCURVE",
"135 516 CURVE",
"0 450 LINE",
"3 419 OFFCURVE",
"20 382 OFFCURVE",
"29 366 CURVE",
"153 403 LINE",
"108 480 LINE",
"118 256 LINE",
"109 0 LINE"
);
},
{
closed = 1;
nodes = (
"401 242 OFFCURVE",
"438 242 OFFCURVE",
"475 250 CURVE",
"477 395 LINE",
"465 442 OFFCURVE",
"420 500 OFFCURVE",
"390 516 CURVE",
"325 516 OFFCURVE",
"249 425 OFFCURVE",
"170 315 CURVE",
"135 282 LINE",
"101 223 OFFCURVE",
"72 156 OFFCURVE",
"58 85 CURVE",
"61 70 OFFCURVE",
"88 24 OFFCURVE",
"109 0 CURVE",
"149 0 LINE",
"149 143 OFFCURVE",
"272 374 OFFCURVE",
"343 396 CURVE SMOOTH",
"354 399 OFFCURVE",
"364 309 OFFCURVE",
"364 250 CURVE"
);
}
);
width = 477;
}
);
unicode = 0072;
},
{
color = 3;
glyphname = t;
lastChange = "2015-08-27 14:29:58 +0000";
layers = (
{
layerId = "B08EA6CB-0345-4FE8-BF44-53271D6C1876";
name = Regular;
paths = (
{
closed = 1;
nodes = (
"201 324 LINE",
"210 585 LINE",
"192 600 OFFCURVE",
"137 635 OFFCURVE",
"117 637 CURVE",
"90 601 LINE",
"100 317 LINE",
"60 74 LINE",
"83 31 OFFCURVE",
"113 1 OFFCURVE",
"148 -16 CURVE",
"355 26 LINE",
"356 63 OFFCURVE",
"352 92 OFFCURVE",
"346 104 CURVE",
"177 97 LINE",
"202 52 LINE"
);
},
{
closed = 1;
nodes = (
"355 426 LINE",
"357 453 OFFCURVE",
"354 477 OFFCURVE",
"346 500 CURVE",
"111 500 LINE",
"146 383 LINE"
);
}
);
width = 356;
}
);
unicode = 0074;
},
{
color = 1;
glyphname = u;
lastChange = "2015-08-17 16:46:52 +0000";
layers = (
{
background = {
paths = (
{
closed = 1;
nodes = (
"394 509 OFFCURVE",
"341 509 OFFCURVE",
"311 501 CURVE",
"314 238 LINE",
"324 206 LINE",
"314 13 LINE",
"332 -2 OFFCURVE",
"378 -13 OFFCURVE",
"398 -15 CURVE",
"533 11 LINE",
"534 48 OFFCURVE",
"528 86 OFFCURVE",
"522 98 CURVE",
"380 98 LINE",
"425 21 LINE",
"415 245 LINE",
"424 501 LINE"
);
},
{
closed = 1;
nodes = (
"163 451 OFFCURVE",
"149 486 OFFCURVE",
"136 504 CURVE",
"102 509 OFFCURVE",
"36 508 OFFCURVE",
"6 501 CURVE",
"6 106 LINE",
"18 59 OFFCURVE",
"63 1 OFFCURVE",
"93 -15 CURVE",
"227 -15 OFFCURVE",
"425 173 OFFCURVE",
"475 416 CURVE",
"472 431 OFFCURVE",
"445 477 OFFCURVE",
"424 501 CURVE",
"384 501 LINE",
"384 358 OFFCURVE",
"271 127 OFFCURVE",
"140 105 CURVE SMOOTH",
"117 101 OFFCURVE",
"99 278 OFFCURVE",
"168 426 CURVE"
);
}
);
};
layerId = "B08EA6CB-0345-4FE8-BF44-53271D6C1876";
name = Regular;
paths = (
{
closed = 1;
nodes = (
"436 510 OFFCURVE",
"383 510 OFFCURVE",
"353 502 CURVE",
"356 239 LINE",
"366 207 LINE",
"347 38 LINE",
"365 23 OFFCURVE",
"420 -12 OFFCURVE",
"440 -14 CURVE",
"575 52 LINE",
"572 83 OFFCURVE",
"555 120 OFFCURVE",
"546 136 CURVE",
"422 99 LINE",
"467 22 LINE",
"457 246 LINE",
"466 502 LINE"
);
},
{
closed = 1;
nodes = (
"103 404 LINE",
"78 449 LINE",
"58 107 LINE",
"70 60 OFFCURVE",
"115 2 OFFCURVE",
"145 -14 CURVE",
"239 -14 OFFCURVE",
"467 174 OFFCURVE",
"517 417 CURVE",
"514 432 OFFCURVE",
"487 478 OFFCURVE",
"466 502 CURVE",
"426 502 LINE",
"426 359 OFFCURVE",
"283 128 OFFCURVE",
"192 106 CURVE SMOOTH",
"169 100 OFFCURVE",
"151 279 OFFCURVE",
"220 427 CURVE",
"197 470 OFFCURVE",
"167 500 OFFCURVE",
"132 517 CURVE",
"-15 485 LINE",
"-16 448 OFFCURVE",
"-12 419 OFFCURVE",
"-6 407 CURVE"
);
}
);
width = 555;
}
);
unicode = 0075;
},
{
color = 1;
glyphname = v;
lastChange = "2015-08-17 16:46:52 +0000";
layers = (
{
layerId = "B08EA6CB-0345-4FE8-BF44-53271D6C1876";
name = Regular;
paths = (
{
closed = 1;
nodes = (
"426 510 OFFCURVE",
"373 510 OFFCURVE",
"343 502 CURVE",
"346 219 LINE",
"356 207 LINE",
"447 266 LINE",
"456 502 LINE"
);
},
{
closed = 1;
nodes = (
"103 404 LINE",
"78 449 LINE",
"108 107 LINE",
"127 60 OFFCURVE",
"172 2 OFFCURVE",
"195 -14 CURVE",
"289 -14 OFFCURVE",
"457 174 OFFCURVE",
"507 417 CURVE",
"504 432 OFFCURVE",
"477 478 OFFCURVE",
"456 502 CURVE",
"416 502 LINE",
"416 359 OFFCURVE",
"323 128 OFFCURVE",
"242 106 CURVE SMOOTH",
"219 100 OFFCURVE",
"151 279 OFFCURVE",
"220 427 CURVE",
"197 470 OFFCURVE",
"167 500 OFFCURVE",
"132 517 CURVE",
"-15 485 LINE",
"-16 448 OFFCURVE",
"-12 419 OFFCURVE",
"-6 407 CURVE"
);
}
);
width = 512;
}
);
unicode = 0076;
},
{
color = 1;
glyphname = w;
lastChange = "2015-08-17 16:46:52 +0000";
layers = (
{
background = {
paths = (
{
closed = 1;
nodes = (
"436 510 OFFCURVE",
"383 510 OFFCURVE",
"353 502 CURVE",
"356 239 LINE",
"366 207 LINE",
"457 266 LINE",
"466 502 LINE"
);
},
{
closed = 1;
nodes = (
"93 404 LINE",
"68 449 LINE",
"88 107 LINE",
"100 60 OFFCURVE",
"145 2 OFFCURVE",
"175 -14 CURVE",
"269 -14 OFFCURVE",
"467 174 OFFCURVE",
"517 417 CURVE",
"514 432 OFFCURVE",
"487 478 OFFCURVE",
"466 502 CURVE",
"426 502 LINE",
"426 359 OFFCURVE",
"313 128 OFFCURVE",
"222 106 CURVE SMOOTH",
"199 100 OFFCURVE",
"141 279 OFFCURVE",
"210 427 CURVE",
"187 470 OFFCURVE",
"157 500 OFFCURVE",
"122 517 CURVE",
"-25 485 LINE",
"-26 448 OFFCURVE",
"-22 419 OFFCURVE",
"-16 407 CURVE"
);
},
{
closed = 1;
nodes = (
"358 258 LINE",
"367 107 LINE",
"379 60 OFFCURVE",
"424 2 OFFCURVE",
"454 -14 CURVE",
"548 -14 OFFCURVE",
"746 174 OFFCURVE",
"796 417 CURVE",
"793 432 OFFCURVE",
"766 478 OFFCURVE",
"745 502 CURVE",
"705 502 LINE",
"705 359 OFFCURVE",
"592 128 OFFCURVE",
"501 106 CURVE SMOOTH",
"487 102 OFFCURVE",
"459 170 OFFCURVE",
"456 258 CURVE"
);
},
{
closed = 1;
nodes = (
"716 510 OFFCURVE",
"663 510 OFFCURVE",
"633 502 CURVE",
"636 239 LINE",
"646 207 LINE",
"737 266 LINE",
"746 502 LINE"
);
}
);
};
layerId = "B08EA6CB-0345-4FE8-BF44-53271D6C1876";
name = Regular;
paths = (
{
closed = 1;
nodes = (
"421 510 OFFCURVE",
"368 510 OFFCURVE",
"338 502 CURVE",
"341 219 LINE",
"351 207 LINE",
"442 266 LINE",
"451 502 LINE"
);
},
{
closed = 1;
nodes = (
"103 404 LINE",
"78 449 LINE",
"108 107 LINE",
"126 60 OFFCURVE",
"171 2 OFFCURVE",
"195 -14 CURVE",
"284 -14 OFFCURVE",
"452 174 OFFCURVE",
"502 417 CURVE",
"499 432 OFFCURVE",
"472 478 OFFCURVE",
"451 502 CURVE",
"411 502 LINE",
"411 359 OFFCURVE",
"318 128 OFFCURVE",
"242 106 CURVE SMOOTH",
"219 99 OFFCURVE",
"151 279 OFFCURVE",
"220 427 CURVE",
"197 470 OFFCURVE",
"167 500 OFFCURVE",
"132 517 CURVE",
"-15 485 LINE",
"-16 448 OFFCURVE",
"-12 419 OFFCURVE",
"-6 407 CURVE"
);
},
{
closed = 1;
nodes = (
"343 258 LINE",
"372 107 LINE",
"390 60 OFFCURVE",
"435 2 OFFCURVE",
"459 -14 CURVE",
"548 -14 OFFCURVE",
"716 174 OFFCURVE",
"766 417 CURVE",
"763 432 OFFCURVE",
"736 478 OFFCURVE",
"715 502 CURVE",
"675 502 LINE",
"675 359 OFFCURVE",
"582 128 OFFCURVE",
"506 106 CURVE SMOOTH",
"492 102 OFFCURVE",
"444 170 OFFCURVE",
"441 258 CURVE"
);
},
{
closed = 1;
nodes = (
"686 510 OFFCURVE",
"633 510 OFFCURVE",
"603 502 CURVE",
"606 219 LINE",
"616 207 LINE",
"707 266 LINE",
"716 502 LINE"
);
}
);
width = 771;
}
);
leftMetricsKey = v;
rightMetricsKey = v;
unicode = 0077;
},
{
color = 2;
glyphname = a.ss01;
lastChange = "2015-08-27 14:27:12 +0000";
layers = (
{
background = {
paths = (
{
closed = 1;
nodes = (
"418 500 OFFCURVE",
"365 500 OFFCURVE",
"335 492 CURVE",
"338 239 LINE",
"348 207 LINE",
"329 38 LINE",
"347 23 OFFCURVE",
"402 -12 OFFCURVE",
"422 -14 CURVE",
"557 52 LINE",
"554 83 OFFCURVE",
"537 115 OFFCURVE",
"528 131 CURVE",
"404 99 LINE",
"449 22 LINE",
"439 246 LINE",
"448 492 LINE"
);
},
{
closed = 1;
nodes = (
"342 527 OFFCURVE",
"232 516 OFFCURVE",
"125 502 CURVE",
"88 469 OFFCURVE",
"70 436 OFFCURVE",
"56 403 CURVE",
"40 107 LINE",
"52 60 OFFCURVE",
"97 2 OFFCURVE",
"127 -14 CURVE",
"221 -14 OFFCURVE",
"449 174 OFFCURVE",
"499 417 CURVE",
"496 432 OFFCURVE",
"469 468 OFFCURVE",
"448 492 CURVE",
"408 492 LINE",
"408 349 OFFCURVE",
"265 128 OFFCURVE",
"174 106 CURVE SMOOTH",
"151 100 OFFCURVE",
"133 279 OFFCURVE",
"202 427 CURVE",
"160 389 LINE",
"247 409 OFFCURVE",
"317 412 OFFCURVE",
"395 401 CURVE",
"448 492 LINE"
);
}
);
};
components = (
{
name = rounded.b;
transform = "{1, 0, 0, 1, 0, 0}";
}
);
layerId = "B08EA6CB-0345-4FE8-BF44-53271D6C1876";
name = Regular;
paths = (
{
closed = 1;
nodes = (
"418 508 OFFCURVE",
"365 508 OFFCURVE",
"335 500 CURVE",
"338 239 LINE",
"348 207 LINE",
"329 38 LINE",
"347 23 OFFCURVE",
"402 -14 OFFCURVE",
"422 -16 CURVE",
"557 52 LINE",
"554 83 OFFCURVE",
"537 115 OFFCURVE",
"528 131 CURVE",
"404 99 LINE",
"449 22 LINE",
"439 246 LINE",
"448 500 LINE"
);
}
);
width = 542;
},
{
associatedMasterId = "B08EA6CB-0345-4FE8-BF44-53271D6C1876";
background = {
paths = (
{
closed = 1;
nodes = (
"478 509 OFFCURVE",
"445 509 OFFCURVE",
"415 501 CURVE",
"419 169 LINE",
"428 163 LINE",
"418 13 LINE",
"436 -2 OFFCURVE",
"462 -13 OFFCURVE",
"482 -15 CURVE",
"609 11 LINE",
"607 23 OFFCURVE",
"604 46 OFFCURVE",
"598 58 CURVE",
"464 58 LINE",
"509 21 LINE",
"499 245 LINE",
"508 501 LINE"
);
},
{
closed = 1;
nodes = (
"316 288 OFFCURVE",
"220 269 OFFCURVE",
"91 238 CURVE",
"39 160 OFFCURVE",
"108 -16 OFFCURVE",
"239 -16 CURVE SMOOTH",
"366 -16 OFFCURVE",
"424 102 OFFCURVE",
"466 206 CURVE",
"440 236 LINE",
"383 155 OFFCURVE",
"358 62 OFFCURVE",
"258 62 CURVE SMOOTH",
"203 62 OFFCURVE",
"169 120 OFFCURVE",
"167 173 CURVE",
"254 212 OFFCURVE",
"346 240 OFFCURVE",
"453 253 CURVE",
"445 299 LINE"
);
},
{
closed = 1;
nodes = (
"450 458 LINE",
"320 502 OFFCURVE",
"229 516 OFFCURVE",
"99 500 CURVE",
"94 462 OFFCURVE",
"102 441 OFFCURVE",
"117 403 CURVE",
"240 436 OFFCURVE",
"328 430 OFFCURVE",
"451 403 CURVE"
);
}
);
};
layerId = "52A5A4B5-AF09-46BE-A244-DCDB15B44143";
name = "Regular Jul 12 15, 20:19";
paths = (
{
closed = 1;
nodes = (
"478 509 OFFCURVE",
"445 509 OFFCURVE",
"415 501 CURVE",
"419 169 LINE",
"428 163 LINE",
"418 13 LINE",
"436 -2 OFFCURVE",
"462 -13 OFFCURVE",
"482 -15 CURVE",
"609 11 LINE",
"607 23 OFFCURVE",
"604 46 OFFCURVE",
"598 58 CURVE",
"464 58 LINE",
"509 21 LINE",
"499 245 LINE",
"508 501 LINE"
);
},
{
closed = 1;
nodes = (
"316 288 OFFCURVE",
"220 269 OFFCURVE",
"91 238 CURVE",
"39 160 OFFCURVE",
"108 -16 OFFCURVE",
"239 -16 CURVE SMOOTH",
"366 -16 OFFCURVE",
"424 102 OFFCURVE",
"466 206 CURVE",
"440 236 LINE",
"383 155 OFFCURVE",
"358 62 OFFCURVE",
"258 62 CURVE SMOOTH",
"203 62 OFFCURVE",
"169 120 OFFCURVE",
"167 173 CURVE",
"254 212 OFFCURVE",
"346 240 OFFCURVE",
"453 253 CURVE",
"445 299 LINE"
);
},
{
closed = 1;
nodes = (
"450 458 LINE",
"320 502 OFFCURVE",
"229 516 OFFCURVE",
"99 500 CURVE",
"94 462 OFFCURVE",
"102 441 OFFCURVE",
"117 403 CURVE",
"240 436 OFFCURVE",
"328 430 OFFCURVE",
"451 403 CURVE"
);
}
);
width = 600;
},
{
associatedMasterId = "B08EA6CB-0345-4FE8-BF44-53271D6C1876";
background = {
paths = (
{
closed = 1;
nodes = (
"389 518 OFFCURVE",
"336 518 OFFCURVE",
"306 510 CURVE",
"309 247 LINE",
"319 215 LINE",
"309 22 LINE",
"327 7 OFFCURVE",
"373 -4 OFFCURVE",
"393 -6 CURVE",
"528 20 LINE",
"529 57 OFFCURVE",
"523 95 OFFCURVE",
"517 107 CURVE",
"375 107 LINE",
"420 30 LINE",
"410 254 LINE",
"419 510 LINE"
);
},
{
closed = 1;
nodes = (
"168 460 OFFCURVE",
"144 495 OFFCURVE",
"131 513 CURVE",
"97 518 OFFCURVE",
"51 517 OFFCURVE",
"21 510 CURVE",
"1 115 LINE",
"13 68 OFFCURVE",
"58 10 OFFCURVE",
"88 -6 CURVE",
"222 -6 OFFCURVE",
"420 182 OFFCURVE",
"470 425 CURVE",
"467 440 OFFCURVE",
"440 486 OFFCURVE",
"419 510 CURVE",
"379 510 LINE",
"379 367 OFFCURVE",
"266 156 OFFCURVE",
"135 134 CURVE SMOOTH",
"112 130 OFFCURVE",
"104 287 OFFCURVE",
"173 435 CURVE"
);
},
{
closed = 1;
nodes = (
"419 510 LINE",
"289 554 OFFCURVE",
"151 526 OFFCURVE",
"21 510 CURVE",
"16 472 OFFCURVE",
"102 441 OFFCURVE",
"117 403 CURVE",
"240 436 OFFCURVE",
"328 430 OFFCURVE",
"451 403 CURVE"
);
}
);
};
layerId = "EFAB7853-CA7D-48ED-A818-0922BBFD85D0";
name = "Regular Jul 12 15, 20:20";
paths = (
{
closed = 1;
nodes = (
"389 518 OFFCURVE",
"336 518 OFFCURVE",
"306 510 CURVE",
"309 247 LINE",
"319 215 LINE",
"309 22 LINE",
"327 7 OFFCURVE",
"373 -4 OFFCURVE",
"393 -6 CURVE",
"528 20 LINE",
"529 57 OFFCURVE",
"523 95 OFFCURVE",
"517 107 CURVE",
"375 107 LINE",
"420 30 LINE",
"410 254 LINE",
"419 510 LINE"
);
},
{
closed = 1;
nodes = (
"168 460 OFFCURVE",
"144 495 OFFCURVE",
"131 513 CURVE",
"97 518 OFFCURVE",
"51 517 OFFCURVE",
"21 510 CURVE",
"1 115 LINE",
"13 68 OFFCURVE",
"58 10 OFFCURVE",
"88 -6 CURVE",
"222 -6 OFFCURVE",
"420 182 OFFCURVE",
"470 425 CURVE",
"467 440 OFFCURVE",
"440 486 OFFCURVE",
"419 510 CURVE",
"379 510 LINE",
"379 367 OFFCURVE",
"266 156 OFFCURVE",
"135 134 CURVE SMOOTH",
"112 130 OFFCURVE",
"104 287 OFFCURVE",
"173 435 CURVE"
);
},
{
closed = 1;
nodes = (
"419 510 LINE",
"289 554 OFFCURVE",
"151 526 OFFCURVE",
"21 510 CURVE",
"16 472 OFFCURVE",
"102 441 OFFCURVE",
"117 403 CURVE",
"240 436 OFFCURVE",
"328 430 OFFCURVE",
"451 403 CURVE"
);
}
);
width = 600;
},
{
associatedMasterId = "B08EA6CB-0345-4FE8-BF44-53271D6C1876";
background = {
paths = (
{
closed = 1;
nodes = (
"389 518 OFFCURVE",
"336 518 OFFCURVE",
"306 510 CURVE",
"309 247 LINE",
"319 215 LINE",
"309 22 LINE",
"327 7 OFFCURVE",
"373 -4 OFFCURVE",
"393 -6 CURVE",
"528 20 LINE",
"529 57 OFFCURVE",
"523 95 OFFCURVE",
"517 107 CURVE",
"375 107 LINE",
"420 30 LINE",
"410 254 LINE",
"419 510 LINE"
);
},
{
closed = 1;
nodes = (
"168 460 OFFCURVE",
"144 495 OFFCURVE",
"131 513 CURVE",
"97 518 OFFCURVE",
"51 517 OFFCURVE",
"21 510 CURVE",
"1 115 LINE",
"13 68 OFFCURVE",
"58 10 OFFCURVE",
"88 -6 CURVE",
"222 -6 OFFCURVE",
"420 182 OFFCURVE",
"470 425 CURVE",
"467 440 OFFCURVE",
"440 486 OFFCURVE",
"419 510 CURVE",
"379 510 LINE",
"379 367 OFFCURVE",
"266 156 OFFCURVE",
"135 134 CURVE SMOOTH",
"112 130 OFFCURVE",
"104 287 OFFCURVE",
"173 435 CURVE"
);
},
{
closed = 1;
nodes = (
"419 510 LINE",
"289 554 OFFCURVE",
"151 526 OFFCURVE",
"21 510 CURVE",
"16 472 OFFCURVE",
"102 441 OFFCURVE",
"117 403 CURVE",
"240 436 OFFCURVE",
"328 430 OFFCURVE",
"451 403 CURVE"
);
}
);
};
layerId = "2C998B74-426A-4077-A3BF-06F4B441E139";
name = "Regular Jul 12 15, 21:32";
paths = (
{
closed = 1;
nodes = (
"389 500 OFFCURVE",
"336 500 OFFCURVE",
"306 492 CURVE",
"309 238 LINE",
"319 206 LINE",
"309 13 LINE",
"327 -2 OFFCURVE",
"373 -13 OFFCURVE",
"393 -15 CURVE",
"528 11 LINE",
"529 48 OFFCURVE",
"523 86 OFFCURVE",
"517 98 CURVE",
"375 98 LINE",
"420 21 LINE",
"410 245 LINE",
"419 492 LINE"
);
},
{
closed = 1;
nodes = (
"59 469 OFFCURVE",
"33 436 OFFCURVE",
"16 403 CURVE",
"1 106 LINE",
"13 59 OFFCURVE",
"58 1 OFFCURVE",
"88 -15 CURVE",
"222 -15 OFFCURVE",
"420 164 OFFCURVE",
"470 407 CURVE",
"467 422 OFFCURVE",
"440 468 OFFCURVE",
"419 492 CURVE",
"313 527 OFFCURVE",
"203 516 OFFCURVE",
"96 502 CURVE"
);
},
{
closed = 1;
nodes = (
"111 101 OFFCURVE",
"104 286 OFFCURVE",
"184 439 CURVE",
"131 389 LINE",
"218 409 OFFCURVE",
"288 412 OFFCURVE",
"366 401 CURVE",
"333 273 OFFCURVE",
"240 123 OFFCURVE",
"135 105 CURVE SMOOTH"
);
}
);
width = 600;
},
{
associatedMasterId = "B08EA6CB-0345-4FE8-BF44-53271D6C1876";
background = {
paths = (
{
closed = 1;
nodes = (
"389 500 OFFCURVE",
"336 500 OFFCURVE",
"306 492 CURVE",
"309 238 LINE",
"319 206 LINE",
"309 13 LINE",
"327 -2 OFFCURVE",
"373 -13 OFFCURVE",
"393 -15 CURVE",
"528 11 LINE",
"529 48 OFFCURVE",
"523 86 OFFCURVE",
"517 98 CURVE",
"375 98 LINE",
"420 21 LINE",
"410 245 LINE",
"419 492 LINE"
);
},
{
closed = 1;
nodes = (
"59 489 OFFCURVE",
"33 456 OFFCURVE",
"16 423 CURVE",
"1 126 LINE",
"13 79 OFFCURVE",
"58 21 OFFCURVE",
"88 5 CURVE",
"222 5 OFFCURVE",
"420 184 OFFCURVE",
"470 427 CURVE",
"467 442 OFFCURVE",
"440 488 OFFCURVE",
"419 512 CURVE",
"313 547 OFFCURVE",
"203 536 OFFCURVE",
"96 522 CURVE"
);
},
{
closed = 1;
nodes = (
"111 121 OFFCURVE",
"104 306 OFFCURVE",
"184 459 CURVE",
"131 409 LINE",
"218 429 OFFCURVE",
"288 432 OFFCURVE",
"366 421 CURVE",
"333 293 OFFCURVE",
"240 143 OFFCURVE",
"135 125 CURVE SMOOTH"
);
}
);
};
layerId = "ED2D0B91-3A95-49C5-BA81-1BB39976B29D";
name = "Regular Jul 12 15, 21:34";
paths = (
{
closed = 1;
nodes = (
"389 510 OFFCURVE",
"336 510 OFFCURVE",
"306 502 CURVE",
"309 239 LINE",
"319 207 LINE",
"300 38 LINE",
"318 23 OFFCURVE",
"373 -12 OFFCURVE",
"393 -14 CURVE",
"528 52 LINE",
"525 83 OFFCURVE",
"508 120 OFFCURVE",
"499 136 CURVE",
"375 99 LINE",
"420 22 LINE",
"410 246 LINE",
"419 502 LINE"
);
},
{
closed = 1;
nodes = (
"56 404 LINE",
"31 449 LINE",
"11 107 LINE",
"23 60 OFFCURVE",
"68 2 OFFCURVE",
"98 -14 CURVE",
"192 -14 OFFCURVE",
"420 174 OFFCURVE",
"470 417 CURVE",
"467 432 OFFCURVE",
"440 478 OFFCURVE",
"419 502 CURVE",
"379 502 LINE",
"379 359 OFFCURVE",
"236 128 OFFCURVE",
"145 106 CURVE SMOOTH",
"122 100 OFFCURVE",
"104 279 OFFCURVE",
"173 427 CURVE",
"150 470 OFFCURVE",
"120 500 OFFCURVE",
"85 517 CURVE",
"-62 485 LINE",
"-63 448 OFFCURVE",
"-59 419 OFFCURVE",
"-53 407 CURVE"
);
},
{
closed = 0;
nodes = (
"419 492 LINE",
"313 527 OFFCURVE",
"203 516 OFFCURVE",
"96 502 CURVE",
"59 469 OFFCURVE",
"33 436 OFFCURVE",
"16 403 CURVE"
);
},
{
closed = 0;
nodes = (
"184 439 LINE",
"131 389 LINE",
"218 409 OFFCURVE",
"288 412 OFFCURVE",
"366 401 CURVE"
);
}
);
width = 600;
},
{
associatedMasterId = "B08EA6CB-0345-4FE8-BF44-53271D6C1876";
background = {
paths = (
{
closed = 1;
nodes = (
"408 500 OFFCURVE",
"355 500 OFFCURVE",
"325 492 CURVE",
"328 239 LINE",
"338 207 LINE",
"319 38 LINE",
"337 23 OFFCURVE",
"392 -12 OFFCURVE",
"412 -14 CURVE",
"547 52 LINE",
"544 83 OFFCURVE",
"527 120 OFFCURVE",
"518 136 CURVE",
"394 99 LINE",
"439 22 LINE",
"429 246 LINE",
"438 492 LINE"
);
},
{
closed = 1;
nodes = (
"332 527 OFFCURVE",
"222 516 OFFCURVE",
"115 502 CURVE",
"78 469 OFFCURVE",
"60 436 OFFCURVE",
"46 403 CURVE",
"30 107 LINE",
"42 60 OFFCURVE",
"87 2 OFFCURVE",
"117 -14 CURVE",
"211 -14 OFFCURVE",
"439 174 OFFCURVE",
"489 417 CURVE",
"486 432 OFFCURVE",
"459 468 OFFCURVE",
"438 492 CURVE",
"398 492 LINE",
"398 349 OFFCURVE",
"255 128 OFFCURVE",
"164 106 CURVE SMOOTH",
"141 100 OFFCURVE",
"123 279 OFFCURVE",
"192 427 CURVE",
"150 389 LINE",
"237 409 OFFCURVE",
"307 412 OFFCURVE",
"385 401 CURVE",
"438 492 LINE"
);
}
);
};
layerId = "E47A9656-FB60-44D9-9EC7-E704DBCAF03F";
name = "Regular Jul 12 15, 23:59";
paths = (
{
closed = 1;
nodes = (
"408 500 OFFCURVE",
"355 500 OFFCURVE",
"325 492 CURVE",
"328 239 LINE",
"338 207 LINE",
"319 38 LINE",
"337 23 OFFCURVE",
"392 -12 OFFCURVE",
"412 -14 CURVE",
"547 52 LINE",
"544 83 OFFCURVE",
"527 120 OFFCURVE",
"518 136 CURVE",
"394 99 LINE",
"439 22 LINE",
"429 246 LINE",
"438 492 LINE"
);
},
{
closed = 1;
nodes = (
"332 527 OFFCURVE",
"222 516 OFFCURVE",
"115 502 CURVE",
"78 469 OFFCURVE",
"60 436 OFFCURVE",
"46 403 CURVE",
"30 107 LINE",
"42 60 OFFCURVE",
"87 2 OFFCURVE",
"117 -14 CURVE",
"211 -14 OFFCURVE",
"439 174 OFFCURVE",
"489 417 CURVE",
"486 432 OFFCURVE",
"459 468 OFFCURVE",
"438 492 CURVE",
"398 492 LINE",
"398 349 OFFCURVE",
"255 128 OFFCURVE",
"164 106 CURVE SMOOTH",
"141 100 OFFCURVE",
"123 279 OFFCURVE",
"192 427 CURVE",
"150 389 LINE",
"237 409 OFFCURVE",
"307 412 OFFCURVE",
"385 401 CURVE",
"438 492 LINE"
);
}
);
width = 532;
}
);
leftMetricsKey = a;
rightMetricsKey = n;
},
{
color = 2;
glyphname = b.ss01;
lastChange = "2015-08-27 14:26:42 +0000";
layers = (
{
background = {
paths = (
{
closed = 1;
nodes = (
"206 -5 OFFCURVE",
"346 -26 OFFCURVE",
"453 -12 CURVE",
"490 21 OFFCURVE",
"508 54 OFFCURVE",
"522 87 CURVE",
"528 393 LINE",
"516 440 OFFCURVE",
"471 500 OFFCURVE",
"441 516 CURVE",
"347 516 OFFCURVE",
"89 318 OFFCURVE",
"59 75 CURVE",
"62 60 OFFCURVE",
"89 24 OFFCURVE",
"110 0 CURVE",
"135 0 LINE",
"135 143 OFFCURVE",
"303 372 OFFCURVE",
"394 394 CURVE SMOOTH",
"417 400 OFFCURVE",
"445 211 OFFCURVE",
"376 63 CURVE",
"418 101 LINE",
"331 81 OFFCURVE",
"231 118 OFFCURVE",
"153 229 CURVE",
"100 138 LINE"
);
}
);
};
components = (
{
name = rounded.b;
transform = "{-1, 0, 0, -1, 557, 500}";
}
);
layerId = "B08EA6CB-0345-4FE8-BF44-53271D6C1876";
name = Regular;
paths = (
{
closed = 1;
nodes = (
"210 779 OFFCURVE",
"155 814 OFFCURVE",
"135 816 CURVE",
"0 750 LINE",
"3 719 OFFCURVE",
"20 688 OFFCURVE",
"29 672 CURVE",
"153 704 LINE",
"108 780 LINE",
"118 256 LINE",
"109 0 LINE",
"139 -8 OFFCURVE",
"192 -8 OFFCURVE",
"222 0 CURVE",
"219 263 LINE",
"209 295 LINE",
"228 764 LINE"
);
}
);
width = 557;
},
{
associatedMasterId = "B08EA6CB-0345-4FE8-BF44-53271D6C1876";
background = {
paths = (
{
closed = 1;
nodes = (
"136 -8 OFFCURVE",
"171 -8 OFFCURVE",
"201 0 CURVE",
"192 363 LINE",
"197 698 LINE",
"179 713 OFFCURVE",
"153 724 OFFCURVE",
"133 726 CURVE",
"6 700 LINE",
"8 688 OFFCURVE",
"11 665 OFFCURVE",
"17 653 CURVE",
"151 653 LINE",
"106 690 LINE",
"115 356 LINE",
"106 0 LINE"
);
},
{
closed = 1;
nodes = (
"266 30 OFFCURVE",
"321 -11 OFFCURVE",
"369 -11 CURVE SMOOTH",
"500 -11 OFFCURVE",
"567 130 OFFCURVE",
"567 266 CURVE SMOOTH",
"567 393 OFFCURVE",
"524 519 OFFCURVE",
"406 517 CURVE SMOOTH",
"304 515 OFFCURVE",
"203 408 OFFCURVE",
"154 249 CURVE",
"177 226 LINE",
"235 329 OFFCURVE",
"351 417 OFFCURVE",
"403 417 CURVE SMOOTH",
"465 417 OFFCURVE",
"481 373 OFFCURVE",
"481 296 CURVE SMOOTH",
"481 158 OFFCURVE",
"443 66 OFFCURVE",
"357 66 CURVE SMOOTH",
"309 66 OFFCURVE",
"228 101 OFFCURVE",
"173 157 CURVE",
"169 112 LINE"
);
},
{
closed = 1;
nodes = (
"142 211 LINE",
"123 157 OFFCURVE",
"106 98 OFFCURVE",
"95 35 CURVE",
"98 20 OFFCURVE",
"99 15 OFFCURVE",
"106 0 CURVE",
"146 0 LINE",
"146 49 OFFCURVE",
"159 111 OFFCURVE",
"183 171 CURVE"
);
}
);
};
layerId = "CCBEB497-DF2F-4071-91E8-72E7D14E1849";
name = "Regular Jul 12 15, 19:27";
paths = (
{
closed = 1;
nodes = (
"136 -8 OFFCURVE",
"171 -8 OFFCURVE",
"201 0 CURVE",
"190 305 LINE",
"197 698 LINE",
"179 713 OFFCURVE",
"153 724 OFFCURVE",
"133 726 CURVE",
"6 700 LINE",
"8 688 OFFCURVE",
"11 665 OFFCURVE",
"17 653 CURVE",
"151 653 LINE",
"106 690 LINE",
"115 356 LINE",
"106 0 LINE"
);
},
{
closed = 1;
nodes = (
"189 40 OFFCURVE",
"273 -11 OFFCURVE",
"321 -11 CURVE SMOOTH",
"452 -11 OFFCURVE",
"567 96 OFFCURVE",
"567 266 CURVE SMOOTH",
"567 393 OFFCURVE",
"477 517 OFFCURVE",
"406 517 CURVE SMOOTH",
"304 517 OFFCURVE",
"203 408 OFFCURVE",
"154 249 CURVE",
"177 226 LINE",
"235 329 OFFCURVE",
"351 417 OFFCURVE",
"403 417 CURVE SMOOTH",
"457 417 OFFCURVE",
"483 350 OFFCURVE",
"483 275 CURVE SMOOTH",
"483 146 OFFCURVE",
"404 64 OFFCURVE",
"309 64 CURVE SMOOTH",
"263 64 OFFCURVE",
"213 83 OFFCURVE",
"167 127 CURVE",
"163 82 LINE"
);
},
{
closed = 1;
nodes = (
"132 210 LINE",
"113 156 OFFCURVE",
"100 98 OFFCURVE",
"95 35 CURVE",
"98 20 OFFCURVE",
"99 15 OFFCURVE",
"106 0 CURVE",
"146 0 LINE",
"146 49 OFFCURVE",
"159 111 OFFCURVE",
"183 171 CURVE"
);
}
);
width = 600;
},
{
associatedMasterId = "B08EA6CB-0345-4FE8-BF44-53271D6C1876";
background = {
paths = (
{
closed = 1;
nodes = (
"135 -8 OFFCURVE",
"170 -8 OFFCURVE",
"200 0 CURVE",
"191 363 LINE",
"196 698 LINE",
"178 713 OFFCURVE",
"152 724 OFFCURVE",
"132 726 CURVE",
"5 700 LINE",
"7 688 OFFCURVE",
"10 665 OFFCURVE",
"16 653 CURVE",
"150 653 LINE",
"105 690 LINE",
"114 356 LINE",
"105 0 LINE"
);
},
{
closed = 1;
nodes = (
"265 30 OFFCURVE",
"320 -11 OFFCURVE",
"368 -11 CURVE SMOOTH",
"499 -11 OFFCURVE",
"566 130 OFFCURVE",
"566 266 CURVE SMOOTH",
"566 393 OFFCURVE",
"523 519 OFFCURVE",
"405 517 CURVE SMOOTH",
"303 515 OFFCURVE",
"202 408 OFFCURVE",
"153 249 CURVE",
"176 226 LINE",
"234 329 OFFCURVE",
"350 417 OFFCURVE",
"402 417 CURVE SMOOTH",
"464 417 OFFCURVE",
"480 373 OFFCURVE",
"480 296 CURVE SMOOTH",
"480 158 OFFCURVE",
"442 66 OFFCURVE",
"356 66 CURVE SMOOTH",
"308 66 OFFCURVE",
"227 101 OFFCURVE",
"172 157 CURVE",
"168 112 LINE"
);
},
{
closed = 1;
nodes = (
"141 211 LINE",
"122 157 OFFCURVE",
"105 98 OFFCURVE",
"94 35 CURVE",
"97 20 OFFCURVE",
"98 15 OFFCURVE",
"105 0 CURVE",
"145 0 LINE",
"145 49 OFFCURVE",
"158 111 OFFCURVE",
"182 171 CURVE"
);
}
);
};
layerId = "60DEB84B-A780-4E61-9B2B-44BC4710CFF2";
name = "Regular Jul 12 15, 22:07";
paths = (
{
closed = 1;
nodes = (
"135 -8 OFFCURVE",
"170 -8 OFFCURVE",
"200 0 CURVE",
"189 305 LINE",
"196 698 LINE",
"178 713 OFFCURVE",
"152 724 OFFCURVE",
"132 726 CURVE",
"5 700 LINE",
"7 688 OFFCURVE",
"10 665 OFFCURVE",
"16 653 CURVE",
"150 653 LINE",
"105 690 LINE",
"114 356 LINE",
"105 0 LINE"
);
},
{
closed = 1;
nodes = (
"188 40 OFFCURVE",
"272 -11 OFFCURVE",
"320 -11 CURVE SMOOTH",
"451 -11 OFFCURVE",
"566 96 OFFCURVE",
"566 266 CURVE SMOOTH",
"566 393 OFFCURVE",
"476 515 OFFCURVE",
"405 517 CURVE",
"303 517 OFFCURVE",
"202 408 OFFCURVE",
"153 249 CURVE",
"176 226 LINE",
"234 329 OFFCURVE",
"350 417 OFFCURVE",
"402 417 CURVE SMOOTH",
"456 417 OFFCURVE",
"482 350 OFFCURVE",
"482 275 CURVE SMOOTH",
"482 146 OFFCURVE",
"403 64 OFFCURVE",
"308 64 CURVE SMOOTH",
"262 64 OFFCURVE",
"212 83 OFFCURVE",
"166 127 CURVE",
"162 82 LINE"
);
},
{
closed = 1;
nodes = (
"131 210 LINE",
"112 156 OFFCURVE",
"99 98 OFFCURVE",
"94 35 CURVE",
"97 20 OFFCURVE",
"98 15 OFFCURVE",
"105 0 CURVE",
"145 0 LINE",
"145 49 OFFCURVE",
"158 111 OFFCURVE",
"182 171 CURVE"
);
}
);
width = 599;
}
);
},
{
color = 2;
glyphname = d.ss01;
lastChange = "2015-08-27 14:26:42 +0000";
layers = (
{
background = {
paths = (
{
closed = 1;
nodes = (
"352 505 OFFCURVE",
"212 526 OFFCURVE",
"105 512 CURVE",
"68 479 OFFCURVE",
"50 446 OFFCURVE",
"36 413 CURVE",
"30 107 LINE",
"42 60 OFFCURVE",
"87 2 OFFCURVE",
"117 -14 CURVE",
"211 -14 OFFCURVE",
"469 182 OFFCURVE",
"499 425 CURVE",
"496 440 OFFCURVE",
"469 476 OFFCURVE",
"448 500 CURVE",
"423 500 LINE",
"423 357 OFFCURVE",
"255 128 OFFCURVE",
"164 106 CURVE SMOOTH",
"141 100 OFFCURVE",
"113 289 OFFCURVE",
"182 437 CURVE",
"140 399 LINE",
"227 419 OFFCURVE",
"327 382 OFFCURVE",
"405 271 CURVE",
"458 362 LINE"
);
}
);
};
layerId = "B08EA6CB-0345-4FE8-BF44-53271D6C1876";
name = Regular;
paths = (
{
closed = 1;
nodes = (
"436 779 OFFCURVE",
"381 814 OFFCURVE",
"361 816 CURVE",
"226 750 LINE",
"229 719 OFFCURVE",
"246 688 OFFCURVE",
"255 672 CURVE",
"379 704 LINE",
"334 780 LINE",
"336 239 LINE",
"346 207 LINE",
"327 38 LINE",
"345 23 OFFCURVE",
"400 -12 OFFCURVE",
"420 -14 CURVE",
"555 52 LINE",
"552 83 OFFCURVE",
"535 115 OFFCURVE",
"526 131 CURVE",
"402 99 LINE",
"447 22 LINE",
"437 246 LINE",
"454 764 LINE"
);
},
{
closed = 1;
nodes = (
"436 779 OFFCURVE",
"381 814 OFFCURVE",
"361 816 CURVE",
"226 750 LINE",
"229 719 OFFCURVE",
"246 688 OFFCURVE",
"255 672 CURVE",
"379 704 LINE",
"334 780 LINE",
"336 239 LINE",
"346 207 LINE",
"327 38 LINE",
"345 23 OFFCURVE",
"400 -12 OFFCURVE",
"420 -14 CURVE",
"555 52 LINE",
"552 83 OFFCURVE",
"535 115 OFFCURVE",
"526 131 CURVE",
"402 99 LINE",
"447 22 LINE",
"437 246 LINE",
"454 764 LINE"
);
},
{
closed = 1;
nodes = (
"419 408 LINE",
"319 509 OFFCURVE",
"199 524 OFFCURVE",
"105 512 CURVE",
"68 479 OFFCURVE",
"50 446 OFFCURVE",
"36 413 CURVE",
"30 107 LINE",
"42 60 OFFCURVE",
"87 0 OFFCURVE",
"117 -16 CURVE",
"180 -16 OFFCURVE",
"316 73 OFFCURVE",
"409 204 CURVE",
"350 293 LINE",
"294 199 OFFCURVE",
"216 119 OFFCURVE",
"164 106 CURVE SMOOTH",
"141 100 OFFCURVE",
"113 289 OFFCURVE",
"182 437 CURVE",
"140 399 LINE",
"227 419 OFFCURVE",
"327 382 OFFCURVE",
"405 271 CURVE",
"419 295 LINE"
);
}
);
width = 540;
}
);
rightMetricsKey = l;
},
{
color = 2;
glyphname = g.ss01;
lastChange = "2015-08-27 14:26:42 +0000";
layers = (
{
background = {
paths = (
{
closed = 1;
nodes = (
"345 527 OFFCURVE",
"235 516 OFFCURVE",
"128 502 CURVE",
"91 469 OFFCURVE",
"73 436 OFFCURVE",
"59 403 CURVE",
"43 107 LINE",
"55 60 OFFCURVE",
"100 2 OFFCURVE",
"130 -14 CURVE",
"224 -14 OFFCURVE",
"452 174 OFFCURVE",
"502 417 CURVE",
"499 432 OFFCURVE",
"472 468 OFFCURVE",
"451 492 CURVE",
"411 492 LINE",
"411 349 OFFCURVE",
"268 128 OFFCURVE",
"177 106 CURVE SMOOTH",
"154 100 OFFCURVE",
"136 279 OFFCURVE",
"205 427 CURVE",
"163 389 LINE",
"250 409 OFFCURVE",
"320 412 OFFCURVE",
"398 401 CURVE",
"451 492 LINE"
);
},
{
closed = 1;
nodes = (
"326 -16 OFFCURVE",
"314 -68 OFFCURVE",
"287 -125 CURVE",
"329 -87 LINE",
"242 -107 OFFCURVE",
"128 -113 OFFCURVE",
"50 -109 CURVE",
"43 -141 OFFCURVE",
"39 -158 OFFCURVE",
"41 -190 CURVE",
"147 -225 OFFCURVE",
"257 -214 OFFCURVE",
"364 -200 CURVE",
"401 -167 OFFCURVE",
"429 -134 OFFCURVE",
"443 -101 CURVE",
"442 246 LINE",
"451 492 LINE",
"421 500 OFFCURVE",
"368 500 OFFCURVE",
"338 492 CURVE",
"341 239 LINE",
"351 207 LINE",
"332 38 LINE"
);
}
);
};
components = (
{
name = rounded.b;
transform = "{1, 0, 0, 1, 0, 0}";
}
);
layerId = "B08EA6CB-0345-4FE8-BF44-53271D6C1876";
name = Regular;
paths = (
{
closed = 1;
nodes = (
"329 38 LINE",
"323 -16 OFFCURVE",
"311 -68 OFFCURVE",
"284 -125 CURVE",
"326 -87 LINE",
"239 -107 OFFCURVE",
"125 -113 OFFCURVE",
"47 -109 CURVE",
"40 -141 OFFCURVE",
"36 -158 OFFCURVE",
"38 -190 CURVE",
"144 -225 OFFCURVE",
"254 -214 OFFCURVE",
"361 -200 CURVE",
"398 -167 OFFCURVE",
"426 -134 OFFCURVE",
"440 -101 CURVE",
"439 246 LINE",
"448 500 LINE",
"418 508 OFFCURVE",
"365 508 OFFCURVE",
"335 500 CURVE",
"338 239 LINE",
"348 207 LINE"
);
}
);
width = 532;
},
{
associatedMasterId = "B08EA6CB-0345-4FE8-BF44-53271D6C1876";
layerId = "56A0EA90-2111-4E2D-A051-BD4ABD74C590";
name = "Regular Jul 12 15, 23:51";
paths = (
{
closed = 1;
nodes = (
"332 527 OFFCURVE",
"222 516 OFFCURVE",
"115 502 CURVE",
"78 469 OFFCURVE",
"60 436 OFFCURVE",
"46 403 CURVE",
"30 107 LINE",
"42 60 OFFCURVE",
"87 2 OFFCURVE",
"117 -14 CURVE",
"211 -14 OFFCURVE",
"439 174 OFFCURVE",
"489 417 CURVE",
"486 432 OFFCURVE",
"459 468 OFFCURVE",
"438 492 CURVE",
"398 492 LINE",
"398 349 OFFCURVE",
"255 128 OFFCURVE",
"164 106 CURVE SMOOTH",
"141 100 OFFCURVE",
"123 279 OFFCURVE",
"192 427 CURVE",
"150 389 LINE",
"237 409 OFFCURVE",
"307 412 OFFCURVE",
"385 401 CURVE",
"438 492 LINE"
);
},
{
closed = 1;
nodes = (
"313 -16 OFFCURVE",
"301 -68 OFFCURVE",
"274 -125 CURVE",
"316 -87 LINE",
"229 -107 OFFCURVE",
"116 -106 OFFCURVE",
"38 -95 CURVE",
"30 -127 OFFCURVE",
"26 -158 OFFCURVE",
"28 -190 CURVE",
"134 -225 OFFCURVE",
"244 -214 OFFCURVE",
"351 -200 CURVE",
"388 -167 OFFCURVE",
"416 -134 OFFCURVE",
"430 -101 CURVE",
"438 43 LINE",
"429 246 LINE",
"438 492 LINE",
"408 500 OFFCURVE",
"355 500 OFFCURVE",
"325 492 CURVE",
"328 239 LINE",
"338 207 LINE",
"319 38 LINE"
);
}
);
width = 600;
}
);
},
{
color = 2;
glyphname = p.ss01;
lastChange = "2015-08-27 14:26:42 +0000";
layers = (
{
background = {
paths = (
{
closed = 1;
nodes = (
"128 106 LINE",
"226 -6 OFFCURVE",
"355 -23 OFFCURVE",
"453 -10 CURVE",
"490 23 OFFCURVE",
"508 56 OFFCURVE",
"522 89 CURVE",
"528 395 LINE",
"516 442 OFFCURVE",
"471 500 OFFCURVE",
"441 516 CURVE",
"377 516 OFFCURVE",
"225 418 OFFCURVE",
"139 283 CURVE",
"197 191 LINE",
"248 287 OFFCURVE",
"341 383 OFFCURVE",
"394 396 CURVE SMOOTH",
"417 402 OFFCURVE",
"445 213 OFFCURVE",
"376 65 CURVE",
"418 103 LINE",
"331 83 OFFCURVE",
"231 120 OFFCURVE",
"153 231 CURVE",
"128 187 LINE"
);
}
);
};
layerId = "B08EA6CB-0345-4FE8-BF44-53271D6C1876";
name = Regular;
paths = (
{
closed = 1;
nodes = (
"209 275 LINE",
"228 464 LINE",
"210 479 OFFCURVE",
"155 514 OFFCURVE",
"135 516 CURVE",
"0 450 LINE",
"3 419 OFFCURVE",
"20 388 OFFCURVE",
"29 372 CURVE",
"153 404 LINE",
"108 480 LINE",
"120 84 LINE",
"102 -162 LINE",
"115 -180 OFFCURVE",
"146 -207 OFFCURVE",
"166 -215 CURVE",
"222 -200 LINE",
"219 63 LINE"
);
},
{
closed = 1;
nodes = (
"138 92 LINE",
"238 -10 OFFCURVE",
"358 -24 OFFCURVE",
"452 -12 CURVE",
"489 21 OFFCURVE",
"507 54 OFFCURVE",
"521 87 CURVE",
"527 393 LINE",
"515 440 OFFCURVE",
"470 500 OFFCURVE",
"440 516 CURVE",
"375 516 OFFCURVE",
"231 421 OFFCURVE",
"139 282 CURVE",
"197 191 LINE",
"255 291 OFFCURVE",
"338 381 OFFCURVE",
"393 394 CURVE SMOOTH",
"416 400 OFFCURVE",
"444 211 OFFCURVE",
"375 63 CURVE",
"417 101 LINE",
"334 82 OFFCURVE",
"239 115 OFFCURVE",
"163 214 CURVE"
);
}
);
width = 557;
},
{
associatedMasterId = "B08EA6CB-0345-4FE8-BF44-53271D6C1876";
background = {
paths = (
{
closed = 1;
nodes = (
"219 163 LINE",
"228 464 LINE",
"210 479 OFFCURVE",
"155 514 OFFCURVE",
"135 516 CURVE",
"0 450 LINE",
"3 419 OFFCURVE",
"20 382 OFFCURVE",
"29 366 CURVE",
"153 403 LINE",
"108 480 LINE",
"118 156 LINE",
"78 -124 LINE",
"101 -167 OFFCURVE",
"131 -197 OFFCURVE",
"166 -214 CURVE",
"313 -182 LINE",
"314 -145 OFFCURVE",
"310 -116 OFFCURVE",
"304 -104 CURVE",
"195 -101 LINE",
"220 -146 LINE"
);
}
);
};
layerId = "711A8254-64A6-4ACE-AC44-D0FAC4875A1D";
name = "Regular Jul 12 15, 22:54";
paths = (
{
closed = 1;
nodes = (
"277 -6 OFFCURVE",
"367 -23 OFFCURVE",
"474 -9 CURVE",
"511 24 OFFCURVE",
"529 57 OFFCURVE",
"543 90 CURVE",
"559 394 LINE",
"547 441 OFFCURVE",
"502 499 OFFCURVE",
"472 515 CURVE",
"378 515 OFFCURVE",
"170 327 OFFCURVE",
"120 84 CURVE",
"123 69 OFFCURVE",
"150 23 OFFCURVE",
"171 -1 CURVE",
"204 9 LINE",
"204 152 OFFCURVE",
"334 373 OFFCURVE",
"425 395 CURVE SMOOTH",
"448 401 OFFCURVE",
"466 214 OFFCURVE",
"397 66 CURVE",
"439 104 LINE",
"352 84 OFFCURVE",
"302 109 OFFCURVE",
"224 120 CURVE",
"171 29 LINE"
);
},
{
closed = 1;
nodes = (
"139 -208 OFFCURVE",
"192 -208 OFFCURVE",
"222 -200 CURVE",
"219 63 LINE",
"209 275 LINE",
"228 464 LINE",
"210 479 OFFCURVE",
"155 514 OFFCURVE",
"135 516 CURVE",
"0 450 LINE",
"3 419 OFFCURVE",
"20 382 OFFCURVE",
"29 366 CURVE",
"153 403 LINE",
"108 480 LINE",
"120 84 LINE",
"109 -200 LINE"
);
}
);
width = 589;
}
);
leftMetricsKey = n;
},
{
color = 2;
glyphname = q.ss01;
lastChange = "2015-08-27 14:26:42 +0000";
layers = (
{
background = {
paths = (
{
closed = 1;
nodes = (
"332 505 OFFCURVE",
"212 526 OFFCURVE",
"105 512 CURVE",
"68 479 OFFCURVE",
"50 446 OFFCURVE",
"36 413 CURVE",
"30 107 LINE",
"42 60 OFFCURVE",
"87 2 OFFCURVE",
"117 -14 CURVE",
"211 -14 OFFCURVE",
"449 182 OFFCURVE",
"479 425 CURVE",
"476 440 OFFCURVE",
"449 476 OFFCURVE",
"428 500 CURVE",
"403 500 LINE",
"403 357 OFFCURVE",
"255 128 OFFCURVE",
"164 106 CURVE SMOOTH",
"141 100 OFFCURVE",
"113 289 OFFCURVE",
"182 437 CURVE",
"140 399 LINE",
"227 419 OFFCURVE",
"307 382 OFFCURVE",
"385 271 CURVE",
"438 362 LINE"
);
}
);
};
components = (
{
name = rounded.b;
transform = "{1, 0, 0, 1, 0, 0}";
}
);
layerId = "B08EA6CB-0345-4FE8-BF44-53271D6C1876";
name = Regular;
paths = (
{
closed = 1;
nodes = (
"338 -162 LINE",
"351 -180 OFFCURVE",
"382 -207 OFFCURVE",
"402 -215 CURVE",
"458 -200 LINE",
"455 63 LINE",
"445 275 LINE",
"448 500 LINE",
"418 508 OFFCURVE",
"375 508 OFFCURVE",
"345 500 CURVE",
"356 84 LINE"
);
}
);
width = 509;
},
{
associatedMasterId = "B08EA6CB-0345-4FE8-BF44-53271D6C1876";
background = {
paths = (
{
closed = 1;
nodes = (
"313 -16 OFFCURVE",
"301 -68 OFFCURVE",
"274 -125 CURVE",
"316 -87 LINE",
"229 -107 OFFCURVE",
"115 -113 OFFCURVE",
"37 -109 CURVE",
"30 -141 OFFCURVE",
"26 -158 OFFCURVE",
"28 -190 CURVE",
"134 -225 OFFCURVE",
"244 -214 OFFCURVE",
"351 -200 CURVE",
"388 -167 OFFCURVE",
"416 -134 OFFCURVE",
"430 -101 CURVE",
"429 246 LINE",
"438 492 LINE",
"408 500 OFFCURVE",
"355 500 OFFCURVE",
"325 492 CURVE",
"328 239 LINE",
"338 207 LINE",
"319 38 LINE"
);
}
);
};
layerId = "4F61CF58-890F-4EC3-AA02-CB549808ACD8";
name = "Regular Jul 14 15, 23:24";
paths = (
{
closed = 1;
nodes = (
"332 527 OFFCURVE",
"222 516 OFFCURVE",
"115 502 CURVE",
"78 469 OFFCURVE",
"60 436 OFFCURVE",
"46 403 CURVE",
"30 107 LINE",
"42 60 OFFCURVE",
"87 2 OFFCURVE",
"117 -14 CURVE",
"211 -14 OFFCURVE",
"439 174 OFFCURVE",
"489 417 CURVE",
"486 432 OFFCURVE",
"459 468 OFFCURVE",
"438 492 CURVE",
"398 492 LINE",
"398 349 OFFCURVE",
"255 128 OFFCURVE",
"164 106 CURVE SMOOTH",
"141 100 OFFCURVE",
"123 279 OFFCURVE",
"192 427 CURVE",
"150 389 LINE",
"237 409 OFFCURVE",
"307 412 OFFCURVE",
"385 401 CURVE",
"438 492 LINE"
);
},
{
closed = 1;
nodes = (
"355 -208 OFFCURVE",
"408 -208 OFFCURVE",
"438 -200 CURVE",
"435 63 LINE",
"425 275 LINE",
"444 464 LINE",
"324 480 LINE",
"336 84 LINE",
"325 -200 LINE"
);
}
);
width = 519;
},
{
associatedMasterId = "B08EA6CB-0345-4FE8-BF44-53271D6C1876";
background = {
paths = (
{
closed = 1;
nodes = (
"313 -16 OFFCURVE",
"301 -68 OFFCURVE",
"274 -125 CURVE",
"316 -87 LINE",
"229 -107 OFFCURVE",
"115 -113 OFFCURVE",
"37 -109 CURVE",
"30 -141 OFFCURVE",
"26 -158 OFFCURVE",
"28 -190 CURVE",
"134 -225 OFFCURVE",
"244 -214 OFFCURVE",
"351 -200 CURVE",
"388 -167 OFFCURVE",
"416 -134 OFFCURVE",
"430 -101 CURVE",
"429 246 LINE",
"438 492 LINE",
"408 500 OFFCURVE",
"355 500 OFFCURVE",
"325 492 CURVE",
"328 239 LINE",
"338 207 LINE",
"319 38 LINE"
);
}
);
};
layerId = "21850F23-DBDC-431C-B2E9-1883BEB3A922";
name = "Regular Jul 14 15, 23:30";
paths = (
{
closed = 1;
nodes = (
"332 527 OFFCURVE",
"222 516 OFFCURVE",
"115 502 CURVE",
"78 469 OFFCURVE",
"60 436 OFFCURVE",
"46 403 CURVE",
"30 107 LINE",
"42 60 OFFCURVE",
"87 2 OFFCURVE",
"117 -14 CURVE",
"211 -14 OFFCURVE",
"439 174 OFFCURVE",
"489 417 CURVE",
"486 432 OFFCURVE",
"459 468 OFFCURVE",
"438 492 CURVE",
"398 492 LINE",
"398 349 OFFCURVE",
"255 128 OFFCURVE",
"164 106 CURVE SMOOTH",
"141 100 OFFCURVE",
"123 279 OFFCURVE",
"192 427 CURVE",
"150 389 LINE",
"237 409 OFFCURVE",
"307 412 OFFCURVE",
"385 401 CURVE",
"438 492 LINE"
);
},
{
closed = 1;
nodes = (
"345 -208 OFFCURVE",
"408 -208 OFFCURVE",
"438 -200 CURVE",
"435 63 LINE",
"425 275 LINE",
"444 464 LINE",
"324 480 LINE",
"336 84 LINE",
"315 -200 LINE"
);
}
);
width = 519;
},
{
associatedMasterId = "B08EA6CB-0345-4FE8-BF44-53271D6C1876";
background = {
paths = (
{
closed = 1;
nodes = (
"332 527 OFFCURVE",
"222 516 OFFCURVE",
"115 502 CURVE",
"78 469 OFFCURVE",
"60 436 OFFCURVE",
"46 403 CURVE",
"30 107 LINE",
"42 60 OFFCURVE",
"87 2 OFFCURVE",
"117 -14 CURVE",
"211 -14 OFFCURVE",
"439 174 OFFCURVE",
"489 417 CURVE",
"486 432 OFFCURVE",
"459 468 OFFCURVE",
"438 492 CURVE",
"398 492 LINE",
"398 349 OFFCURVE",
"255 128 OFFCURVE",
"164 106 CURVE SMOOTH",
"141 100 OFFCURVE",
"123 279 OFFCURVE",
"192 427 CURVE",
"150 389 LINE",
"237 409 OFFCURVE",
"307 412 OFFCURVE",
"385 401 CURVE",
"438 492 LINE"
);
},
{
closed = 1;
nodes = (
"345 -208 OFFCURVE",
"408 -208 OFFCURVE",
"438 -200 CURVE",
"435 63 LINE",
"425 275 LINE",
"444 464 LINE",
"324 480 LINE",
"336 84 LINE",
"315 -200 LINE"
);
}
);
};
layerId = "874E98EB-0FD1-4C25-91B9-5E25B22B3BF5";
name = "Regular Jul 15 15, 21:13";
paths = (
{
closed = 1;
nodes = (
"332 527 OFFCURVE",
"222 516 OFFCURVE",
"115 502 CURVE",
"78 469 OFFCURVE",
"60 436 OFFCURVE",
"46 403 CURVE",
"30 107 LINE",
"42 60 OFFCURVE",
"87 2 OFFCURVE",
"117 -14 CURVE",
"211 -14 OFFCURVE",
"439 174 OFFCURVE",
"489 417 CURVE",
"486 432 OFFCURVE",
"459 468 OFFCURVE",
"438 492 CURVE",
"398 492 LINE",
"398 349 OFFCURVE",
"255 128 OFFCURVE",
"164 106 CURVE SMOOTH",
"141 100 OFFCURVE",
"123 279 OFFCURVE",
"192 427 CURVE",
"150 389 LINE",
"237 409 OFFCURVE",
"307 412 OFFCURVE",
"385 401 CURVE",
"438 492 LINE"
);
},
{
closed = 1;
nodes = (
"375 -208 OFFCURVE",
"438 -208 OFFCURVE",
"468 -200 CURVE",
"465 63 LINE",
"455 275 LINE",
"474 464 LINE",
"354 480 LINE",
"366 84 LINE",
"345 -200 LINE"
);
}
);
width = 519;
},
{
associatedMasterId = "B08EA6CB-0345-4FE8-BF44-53271D6C1876";
background = {
paths = (
{
closed = 1;
nodes = (
"332 527 OFFCURVE",
"222 516 OFFCURVE",
"115 502 CURVE",
"78 469 OFFCURVE",
"60 436 OFFCURVE",
"46 403 CURVE",
"30 107 LINE",
"42 60 OFFCURVE",
"87 2 OFFCURVE",
"117 -14 CURVE",
"211 -14 OFFCURVE",
"439 174 OFFCURVE",
"489 417 CURVE",
"486 432 OFFCURVE",
"459 468 OFFCURVE",
"438 492 CURVE",
"398 492 LINE",
"398 349 OFFCURVE",
"255 128 OFFCURVE",
"164 106 CURVE SMOOTH",
"141 100 OFFCURVE",
"123 279 OFFCURVE",
"192 427 CURVE",
"150 389 LINE",
"237 409 OFFCURVE",
"307 412 OFFCURVE",
"385 401 CURVE",
"438 492 LINE"
);
},
{
closed = 1;
nodes = (
"375 -208 OFFCURVE",
"438 -208 OFFCURVE",
"468 -200 CURVE",
"465 63 LINE",
"455 275 LINE",
"474 464 LINE",
"354 480 LINE",
"366 84 LINE",
"345 -200 LINE"
);
}
);
};
layerId = "AD54AE75-B8C6-46C1-B915-F64DB4A277B2";
name = "Regular Jul 15 15, 21:13";
paths = (
{
closed = 1;
nodes = (
"332 527 OFFCURVE",
"222 516 OFFCURVE",
"115 502 CURVE",
"78 469 OFFCURVE",
"60 436 OFFCURVE",
"46 403 CURVE",
"30 107 LINE",
"42 60 OFFCURVE",
"87 2 OFFCURVE",
"117 -14 CURVE",
"211 -14 OFFCURVE",
"439 174 OFFCURVE",
"489 417 CURVE",
"486 432 OFFCURVE",
"459 468 OFFCURVE",
"438 492 CURVE",
"398 492 LINE",
"398 349 OFFCURVE",
"255 128 OFFCURVE",
"164 106 CURVE SMOOTH",
"141 100 OFFCURVE",
"123 279 OFFCURVE",
"192 427 CURVE",
"150 389 LINE",
"237 409 OFFCURVE",
"307 412 OFFCURVE",
"385 401 CURVE",
"438 492 LINE"
);
},
{
closed = 1;
nodes = (
"375 -208 OFFCURVE",
"438 -208 OFFCURVE",
"468 -200 CURVE",
"465 63 LINE",
"455 275 LINE",
"469 413 LINE",
"354 480 LINE",
"366 84 LINE",
"345 -200 LINE"
);
}
);
width = 519;
},
{
associatedMasterId = "B08EA6CB-0345-4FE8-BF44-53271D6C1876";
background = {
paths = (
{
closed = 1;
nodes = (
"332 527 OFFCURVE",
"222 516 OFFCURVE",
"115 502 CURVE",
"78 469 OFFCURVE",
"60 436 OFFCURVE",
"46 403 CURVE",
"30 107 LINE",
"42 60 OFFCURVE",
"87 2 OFFCURVE",
"117 -14 CURVE",
"211 -14 OFFCURVE",
"439 174 OFFCURVE",
"489 417 CURVE",
"486 432 OFFCURVE",
"459 468 OFFCURVE",
"438 492 CURVE",
"398 492 LINE",
"398 349 OFFCURVE",
"255 128 OFFCURVE",
"164 106 CURVE SMOOTH",
"141 100 OFFCURVE",
"123 279 OFFCURVE",
"192 427 CURVE",
"150 389 LINE",
"237 409 OFFCURVE",
"307 412 OFFCURVE",
"385 401 CURVE",
"438 492 LINE"
);
},
{
closed = 1;
nodes = (
"375 -208 OFFCURVE",
"438 -208 OFFCURVE",
"468 -200 CURVE",
"465 63 LINE",
"455 275 LINE",
"474 464 LINE",
"354 480 LINE",
"366 84 LINE",
"345 -200 LINE"
);
}
);
};
layerId = "A75CBA71-E3CE-45C3-9CC9-7F9DEE35A7F3";
name = "Regular Jul 15 15, 21:22";
paths = (
{
closed = 1;
nodes = (
"332 495 OFFCURVE",
"222 516 OFFCURVE",
"115 502 CURVE",
"78 469 OFFCURVE",
"60 436 OFFCURVE",
"46 403 CURVE",
"30 107 LINE",
"42 60 OFFCURVE",
"87 2 OFFCURVE",
"117 -14 CURVE",
"211 -14 OFFCURVE",
"439 182 OFFCURVE",
"489 425 CURVE",
"486 440 OFFCURVE",
"459 476 OFFCURVE",
"438 500 CURVE",
"398 500 LINE",
"398 357 OFFCURVE",
"255 128 OFFCURVE",
"164 106 CURVE SMOOTH",
"141 100 OFFCURVE",
"123 279 OFFCURVE",
"192 427 CURVE",
"150 389 LINE",
"237 409 OFFCURVE",
"307 372 OFFCURVE",
"385 261 CURVE",
"438 352 LINE"
);
},
{
closed = 1;
nodes = (
"328 -162 LINE",
"341 -180 OFFCURVE",
"372 -207 OFFCURVE",
"392 -215 CURVE",
"448 -200 LINE",
"445 63 LINE",
"435 275 LINE",
"438 500 LINE",
"408 508 OFFCURVE",
"365 508 OFFCURVE",
"335 500 CURVE",
"346 84 LINE"
);
}
);
width = 519;
}
);
},
{
glyphname = "a-gurmukhi";
lastChange = "2015-08-21 18:24:20 +0000";
layers = (
{
anchors = (
{
name = bottom;
position = "{394, 0}";
},
{
name = top;
position = "{629, 640}";
}
);
layerId = "B08EA6CB-0345-4FE8-BF44-53271D6C1876";
name = Regular;
paths = (
{
closed = 1;
nodes = (
"699 323 LINE",
"708 648 LINE",
"690 663 OFFCURVE",
"645 698 OFFCURVE",
"625 700 CURVE",
"584 674 LINE",
"598 316 LINE",
"558 76 LINE",
"581 33 OFFCURVE",
"611 3 OFFCURVE",
"646 -14 CURVE",
"700 0 LINE"
);
},
{
closed = 1;
nodes = (
"576 506 OFFCURVE",
"341 419 OFFCURVE",
"282 235 CURVE",
"285 220 OFFCURVE",
"325 172 OFFCURVE",
"349 150 CURVE",
"379 150 LINE",
"379 293 OFFCURVE",
"522 379 OFFCURVE",
"623 401 CURVE",
"670 506 LINE"
);
},
{
closed = 1;
nodes = (
"333 554 LINE",
"383 430 OFFCURVE",
"380 297 OFFCURVE",
"349 150 CURVE",
"379 142 OFFCURVE",
"422 142 OFFCURVE",
"452 150 CURVE",
"481 308 OFFCURVE",
"476 442 OFFCURVE",
"400 598 CURVE",
"324 582 LINE"
);
},
{
closed = 1;
nodes = (
"306 598 OFFCURVE",
"96 502 OFFCURVE",
"40 345 CURVE",
"43 330 OFFCURVE",
"83 282 OFFCURVE",
"107 260 CURVE",
"137 260 LINE",
"137 403 OFFCURVE",
"274 479 OFFCURVE",
"355 501 CURVE",
"400 598 LINE"
);
},
{
closed = 1;
nodes = (
"125 543 OFFCURVE",
"143 427 OFFCURVE",
"107 260 CURVE",
"137 252 OFFCURVE",
"180 252 OFFCURVE",
"210 260 CURVE",
"239 418 OFFCURVE",
"224 534 OFFCURVE",
"130 700 CURVE",
"44 700 LINE"
);
},
{
closed = 1;
nodes = (
"598 601 LINE",
"806 601 LINE",
"804 647 OFFCURVE",
"799 674 OFFCURVE",
"790 700 CURVE",
"625 700 LINE"
);
},
{
closed = 1;
nodes = (
"128 700 LINE",
"-30 700 LINE",
"-28 654 OFFCURVE",
"-23 627 OFFCURVE",
"-14 601 CURVE",
"128 601 LINE"
);
}
);
width = 776;
}
);
unicode = 0A05;
},
{
glyphname = "ca-gurmukhi";
lastChange = "2015-08-21 18:26:41 +0000";
layers = (
{
layerId = "B08EA6CB-0345-4FE8-BF44-53271D6C1876";
name = Regular;
paths = (
{
closed = 1;
nodes = (
"-30 700 LINE",
"-28 654 OFFCURVE",
"-23 627 OFFCURVE",
"-14 601 CURVE",
"598 601 LINE",
"596 647 OFFCURVE",
"591 674 OFFCURVE",
"582 700 CURVE"
);
},
{
closed = 1;
nodes = (
"17 447 OFFCURVE",
"-23 399 OFFCURVE",
"-26 385 CURVE",
"4 328 OFFCURVE",
"5 316 OFFCURVE",
"87 266 CURVE",
"155 282 OFFCURVE",
"318 293 OFFCURVE",
"425 283 CURVE",
"470 399 LINE",
"301 393 OFFCURVE",
"207 385 OFFCURVE",
"146 376 CURVE",
"116 360 OFFCURVE",
"67 417 OFFCURVE",
"41 469 CURVE"
);
},
{
closed = 1;
nodes = (
"122 95 LINE",
"136 62 OFFCURVE",
"154 31 OFFCURVE",
"191 -2 CURVE",
"282 -14 OFFCURVE",
"344 -17 OFFCURVE",
"441 5 CURVE",
"460 25 OFFCURVE",
"497 62 OFFCURVE",
"511 91 CURVE",
"509 323 LINE",
"518 648 LINE",
"500 663 OFFCURVE",
"455 698 OFFCURVE",
"435 700 CURVE",
"394 674 LINE",
"405 411 LINE",
"409 330 LINE",
"381 43 LINE",
"413 111 LINE",
"350 93 OFFCURVE",
"310 78 OFFCURVE",
"244 102 CURVE",
"192 186 OFFCURVE",
"176 318 OFFCURVE",
"164 469 CURVE",
"134 477 OFFCURVE",
"71 477 OFFCURVE",
"41 469 CURVE"
);
}
);
width = 600;
}
);
unicode = 0A1A;
},
{
glyphname = "ja-gurmukhi";
lastChange = "2015-08-21 18:27:03 +0000";
layers = (
{
layerId = "B08EA6CB-0345-4FE8-BF44-53271D6C1876";
name = Regular;
paths = (
{
closed = 1;
nodes = (
"-30 700 LINE",
"-28 654 OFFCURVE",
"-23 627 OFFCURVE",
"-14 601 CURVE",
"656 601 LINE",
"654 647 OFFCURVE",
"649 674 OFFCURVE",
"640 700 CURVE"
);
},
{
closed = 1;
nodes = (
"549 323 LINE",
"558 648 LINE",
"540 663 OFFCURVE",
"495 698 OFFCURVE",
"475 700 CURVE",
"434 674 LINE",
"448 286 LINE",
"408 76 LINE",
"431 33 OFFCURVE",
"461 3 OFFCURVE",
"496 -14 CURVE",
"550 0 LINE"
);
},
{
closed = 1;
nodes = (
"506 354 LINE",
"447 354 OFFCURVE",
"252 339 OFFCURVE",
"173 330 CURVE",
"124 340 OFFCURVE",
"96 416 OFFCURVE",
"107 474 CURVE",
"77 474 LINE",
"53 452 OFFCURVE",
"13 404 OFFCURVE",
"10 389 CURVE",
"30 333 OFFCURVE",
"51 281 OFFCURVE",
"143 231 CURVE",
"256 246 OFFCURVE",
"400 245 OFFCURVE",
"461 239 CURVE"
);
},
{
closed = 1;
nodes = (
"176 0 LINE",
"200 166 OFFCURVE",
"209 316 OFFCURVE",
"190 474 CURVE",
"160 482 OFFCURVE",
"107 482 OFFCURVE",
"77 474 CURVE",
"86 413 OFFCURVE",
"92 351 OFFCURVE",
"95 288 CURVE",
"90 179 OFFCURVE",
"77 100 OFFCURVE",
"70 0 CURVE"
);
}
);
width = 626;
}
);
unicode = 0A1C;
},
{
color = 0;
glyphname = "ma-gurmukhi";
lastChange = "2015-08-27 14:31:39 +0000";
layers = (
{
layerId = "B08EA6CB-0345-4FE8-BF44-53271D6C1876";
name = Regular;
paths = (
{
closed = 1;
nodes = (
"539 323 LINE",
"548 648 LINE",
"530 663 OFFCURVE",
"485 698 OFFCURVE",
"465 700 CURVE",
"424 674 LINE",
"438 316 LINE",
"398 76 LINE",
"421 33 OFFCURVE",
"451 3 OFFCURVE",
"486 -14 CURVE",
"540 0 LINE"
);
},
{
closed = 1;
nodes = (
"435 422 OFFCURVE",
"266 410 OFFCURVE",
"153 394 CURVE",
"61 344 OFFCURVE",
"40 301 OFFCURVE",
"20 245 CURVE",
"23 230 OFFCURVE",
"63 182 OFFCURVE",
"87 160 CURVE",
"117 160 LINE",
"106 218 OFFCURVE",
"134 294 OFFCURVE",
"183 304 CURVE",
"260 320 OFFCURVE",
"401 315 OFFCURVE",
"451 315 CURVE",
"496 422 LINE"
);
},
{
closed = 1;
nodes = (
"125 543 OFFCURVE",
"123 327 OFFCURVE",
"87 160 CURVE",
"117 152 OFFCURVE",
"170 152 OFFCURVE",
"200 160 CURVE",
"229 318 OFFCURVE",
"224 534 OFFCURVE",
"130 700 CURVE",
"44 700 LINE"
);
},
{
closed = 1;
nodes = (
"438 601 LINE",
"646 601 LINE",
"644 647 OFFCURVE",
"639 674 OFFCURVE",
"630 700 CURVE",
"465 700 LINE"
);
},
{
closed = 1;
nodes = (
"128 700 LINE",
"-30 700 LINE",
"-28 654 OFFCURVE",
"-23 627 OFFCURVE",
"-14 601 CURVE",
"128 601 LINE"
);
}
);
width = 616;
}
);
unicode = 0A2E;
},
{
glyphname = "ra-gurmukhi";
lastChange = "2015-08-21 18:27:23 +0000";
layers = (
{
layerId = "B08EA6CB-0345-4FE8-BF44-53271D6C1876";
name = Regular;
paths = (
{
closed = 1;
nodes = (
"-30 700 LINE",
"-28 654 OFFCURVE",
"-23 627 OFFCURVE",
"-14 601 CURVE",
"598 601 LINE",
"596 647 OFFCURVE",
"591 674 OFFCURVE",
"582 700 CURVE"
);
},
{
closed = 1;
nodes = (
"460 25 OFFCURVE",
"497 62 OFFCURVE",
"511 91 CURVE",
"509 323 LINE",
"518 648 LINE",
"500 663 OFFCURVE",
"455 698 OFFCURVE",
"435 700 CURVE",
"394 674 LINE",
"405 411 LINE",
"409 330 LINE",
"381 43 LINE",
"413 111 LINE",
"350 93 OFFCURVE",
"310 78 OFFCURVE",
"244 102 CURVE",
"198 176 OFFCURVE",
"177 290 OFFCURVE",
"193 303 CURVE SMOOTH",
"207 314 OFFCURVE",
"318 323 OFFCURVE",
"428 312 CURVE",
"424 428 LINE",
"301 423 OFFCURVE",
"207 415 OFFCURVE",
"146 406 CURVE",
"116 390 OFFCURVE",
"71 349 OFFCURVE",
"59 302 CURVE",
"122 95 LINE",
"136 62 OFFCURVE",
"154 31 OFFCURVE",
"191 -2 CURVE",
"282 -14 OFFCURVE",
"344 -17 OFFCURVE",
"441 5 CURVE"
);
}
);
width = 578;
}
);
unicode = 0A30;
},
{
glyphname = "sha-gurmukhi";
lastChange = "2015-08-27 14:31:26 +0000";
layers = (
{
components = (
{
name = "sa-gurmukhi";
transform = "{1, 0, 0, 1, 0, 0}";
}
);
layerId = "B08EA6CB-0345-4FE8-BF44-53271D6C1876";
name = Regular;
paths = (
{
closed = 1;
nodes = (
"336 66 OFFCURVE",
"379 115 OFFCURVE",
"378 147 CURVE",
"374 175 OFFCURVE",
"322 217 OFFCURVE",
"294 216 CURVE",
"265 212 OFFCURVE",
"223 157 OFFCURVE",
"224 129 CURVE",
"248 100 OFFCURVE",
"276 79 OFFCURVE",
"309 62 CURVE"
);
}
);
width = 600;
}
);
unicode = 0A36;
},
{
glyphname = "sa-gurmukhi";
lastChange = "2015-08-27 14:31:16 +0000";
layers = (
{
layerId = "B08EA6CB-0345-4FE8-BF44-53271D6C1876";
name = Regular;
paths = (
{
closed = 1;
nodes = (
"549 323 LINE",
"558 648 LINE",
"540 663 OFFCURVE",
"495 698 OFFCURVE",
"475 700 CURVE",
"434 674 LINE",
"448 316 LINE",
"408 76 LINE",
"431 33 OFFCURVE",
"461 3 OFFCURVE",
"496 -14 CURVE",
"550 0 LINE"
);
},
{
closed = 1;
nodes = (
"445 422 OFFCURVE",
"266 410 OFFCURVE",
"153 394 CURVE",
"61 344 OFFCURVE",
"40 301 OFFCURVE",
"20 245 CURVE",
"23 230 OFFCURVE",
"63 182 OFFCURVE",
"87 160 CURVE",
"117 160 LINE",
"106 218 OFFCURVE",
"134 294 OFFCURVE",
"183 304 CURVE",
"260 320 OFFCURVE",
"411 315 OFFCURVE",
"461 315 CURVE",
"506 422 LINE"
);
},
{
closed = 1;
nodes = (
"125 543 OFFCURVE",
"123 327 OFFCURVE",
"87 160 CURVE",
"117 152 OFFCURVE",
"170 152 OFFCURVE",
"200 160 CURVE",
"229 318 OFFCURVE",
"224 534 OFFCURVE",
"130 700 CURVE",
"44 700 LINE"
);
},
{
closed = 1;
nodes = (
"-30 700 LINE",
"-28 654 OFFCURVE",
"-23 627 OFFCURVE",
"-14 601 CURVE",
"656 601 LINE",
"654 647 OFFCURVE",
"649 674 OFFCURVE",
"640 700 CURVE"
);
}
);
width = 626;
}
);
unicode = 0A38;
},
{
glyphname = "iri-gurmukhi";
lastChange = "2015-08-21 18:27:33 +0000";
layers = (
{
layerId = "B08EA6CB-0345-4FE8-BF44-53271D6C1876";
name = Regular;
paths = (
{
closed = 1;
nodes = (
"482 419 LINE",
"239 398 LINE",
"313 378 LINE",
"183 441 OFFCURVE",
"178 550 OFFCURVE",
"180 621 CURVE",
"52 621 LINE",
"52 532 OFFCURVE",
"101 421 OFFCURVE",
"241 332 CURVE",
"482 325 LINE"
);
},
{
closed = 1;
nodes = (
"-30 700 LINE",
"-28 654 OFFCURVE",
"-23 627 OFFCURVE",
"-14 601 CURVE",
"598 601 LINE",
"596 647 OFFCURVE",
"591 674 OFFCURVE",
"582 700 CURVE"
);
},
{
closed = 1;
nodes = (
"403 630 LINE",
"412 476 LINE",
"394 390 LINE",
"460 313 LINE",
"480 321 OFFCURVE",
"498 331 OFFCURVE",
"514 341 CURVE",
"513 483 LINE",
"521 630 LINE"
);
},
{
closed = 1;
nodes = (
"462 152 OFFCURVE",
"390 138 OFFCURVE",
"337 138 CURVE SMOOTH",
"253 138 OFFCURVE",
"185 171 OFFCURVE",
"140 229 CURVE SMOOTH",
"139 231 OFFCURVE",
"139 233 OFFCURVE",
"141 235 CURVE SMOOTH",
"205 298 OFFCURVE",
"293 316 OFFCURVE",
"405 316 CURVE SMOOTH",
"424 316 OFFCURVE",
"442 315 OFFCURVE",
"460 313 CURVE",
"489 330 LINE",
"465 393 LINE",
"274 402 OFFCURVE",
"143 373 OFFCURVE",
"66 309 CURVE",
"52 287 OFFCURVE",
"33 239 OFFCURVE",
"31 210 CURVE",
"86 117 OFFCURVE",
"231 20 OFFCURVE",
"352 20 CURVE SMOOTH",
"416 20 OFFCURVE",
"490 32 OFFCURVE",
"545 82 CURVE",
"536 109 OFFCURVE",
"521 152 OFFCURVE",
"500 180 CURVE"
);
}
);
width = 568;
}
);
unicode = 0A72;
},
{
glyphname = dvDanda;
lastChange = "2015-08-21 18:27:50 +0000";
layers = (
{
layerId = "B08EA6CB-0345-4FE8-BF44-53271D6C1876";
name = Regular;
paths = (
{
closed = 1;
nodes = (
"164 323 LINE",
"173 608 LINE",
"155 623 OFFCURVE",
"100 658 OFFCURVE",
"80 660 CURVE",
"51 640 LINE",
"63 316 LINE",
"23 76 LINE",
"46 33 OFFCURVE",
"76 3 OFFCURVE",
"111 -14 CURVE",
"165 0 LINE"
);
}
);
width = 236;
}
);
unicode = 0964;
},
{
glyphname = "eematra-gurmukhi";
lastChange = "2015-08-21 18:28:10 +0000";
layers = (
{
anchors = (
{
name = _top;
position = "{427, 640}";
}
);
layerId = "B08EA6CB-0345-4FE8-BF44-53271D6C1876";
name = Regular;
paths = (
{
closed = 1;
nodes = (
"430 807 OFFCURVE",
"389 926 OFFCURVE",
"210 926 CURVE SMOOTH",
"169 926 OFFCURVE",
"110 918 OFFCURVE",
"81 900 CURVE",
"82 872 OFFCURVE",
"96 818 OFFCURVE",
"109 790 CURVE",
"136 801 OFFCURVE",
"210 812 OFFCURVE",
"251 812 CURVE",
"349 812 OFFCURVE",
"355 765 OFFCURVE",
"412 651 CURVE",
"465 646 OFFCURVE",
"464 646 OFFCURVE",
"517 651 CURVE"
);
}
);
width = 600;
}
);
unicode = 0A47;
},
{
color = 0;
glyphname = "aimatra-gurmukhi";
lastChange = "2015-08-21 18:30:27 +0000";
layers = (
{
anchors = (
{
name = _top;
position = "{427, 640}";
}
);
layerId = "B08EA6CB-0345-4FE8-BF44-53271D6C1876";
name = Regular;
paths = (
{
closed = 1;
nodes = (
"374 795 OFFCURVE",
"341 926 OFFCURVE",
"205 926 CURVE SMOOTH",
"182 926 OFFCURVE",
"151 921 OFFCURVE",
"123 909 CURVE",
"124 881 OFFCURVE",
"130 857 OFFCURVE",
"143 829 CURVE",
"173 841 OFFCURVE",
"193 845 OFFCURVE",
"218 845 CURVE SMOOTH",
"290 845 OFFCURVE",
"311 811 OFFCURVE",
"388 692 CURVE",
"392 706 LINE",
"331 758 OFFCURVE",
"255 788 OFFCURVE",
"184 788 CURVE SMOOTH",
"153 788 OFFCURVE",
"128 783 OFFCURVE",
"97 769 CURVE",
"98 741 OFFCURVE",
"104 717 OFFCURVE",
"117 689 CURVE",
"166 705 OFFCURVE",
"206 712 OFFCURVE",
"247 712 CURVE SMOOTH",
"329 712 OFFCURVE",
"391 684 OFFCURVE",
"421 631 CURVE",
"436 626 OFFCURVE",
"451 626 OFFCURVE",
"466 631 CURVE"
);
}
);
width = 600;
}
);
unicode = 0A48;
},
{
glyphname = "aamatra-gurmukhi";
lastChange = "2015-08-21 18:30:02 +0000";
layers = (
{
layerId = "B08EA6CB-0345-4FE8-BF44-53271D6C1876";
name = Regular;
paths = (
{
closed = 1;
nodes = (
"165 483 LINE",
"174 648 LINE",
"156 663 OFFCURVE",
"101 698 OFFCURVE",
"81 700 CURVE",
"52 700 LINE",
"64 476 LINE",
"24 346 LINE",
"47 303 OFFCURVE",
"77 273 OFFCURVE",
"112 256 CURVE",
"166 270 LINE"
);
},
{
closed = 1;
nodes = (
"-30 700 LINE",
"-28 654 OFFCURVE",
"-23 627 OFFCURVE",
"-14 601 CURVE",
"258 601 LINE",
"256 647 OFFCURVE",
"251 674 OFFCURVE",
"242 700 CURVE"
);
}
);
width = 228;
}
);
unicode = 0A3E;
},
{
glyphname = guraaa;
lastChange = "2015-08-21 18:29:04 +0000";
layers = (
{
layerId = "B08EA6CB-0345-4FE8-BF44-53271D6C1876";
name = Regular;
paths = (
{
closed = 1;
nodes = (
"164 323 LINE",
"173 608 LINE",
"155 623 OFFCURVE",
"100 658 OFFCURVE",
"80 660 CURVE",
"51 640 LINE",
"63 316 LINE",
"23 76 LINE",
"46 33 OFFCURVE",
"76 3 OFFCURVE",
"111 -14 CURVE",
"165 0 LINE"
);
},
{
closed = 1;
nodes = (
"-30 700 LINE",
"-28 654 OFFCURVE",
"-23 627 OFFCURVE",
"-14 601 CURVE",
"258 601 LINE",
"256 647 OFFCURVE",
"251 674 OFFCURVE",
"242 700 CURVE"
);
}
);
width = 236;
}
);
},
{
glyphname = rounded.a;
lastChange = "2015-08-27 14:26:59 +0000";
layers = (
{
layerId = "B08EA6CB-0345-4FE8-BF44-53271D6C1876";
name = Regular;
paths = (
{
closed = 1;
nodes = (
"332 527 OFFCURVE",
"222 514 OFFCURVE",
"115 500 CURVE",
"78 467 OFFCURVE",
"60 436 OFFCURVE",
"46 403 CURVE",
"30 107 LINE",
"42 60 OFFCURVE",
"87 0 OFFCURVE",
"117 -16 CURVE",
"211 -16 OFFCURVE",
"439 174 OFFCURVE",
"489 417 CURVE",
"486 432 OFFCURVE",
"459 468 OFFCURVE",
"438 492 CURVE",
"398 492 LINE",
"398 349 OFFCURVE",
"255 128 OFFCURVE",
"164 106 CURVE SMOOTH",
"141 100 OFFCURVE",
"123 279 OFFCURVE",
"192 427 CURVE",
"150 389 LINE",
"237 409 OFFCURVE",
"307 412 OFFCURVE",
"385 401 CURVE",
"438 492 LINE"
);
}
);
width = 539;
}
);
},
{
glyphname = rounded.b;
lastChange = "2015-08-27 14:26:59 +0000";
layers = (
{
layerId = "B08EA6CB-0345-4FE8-BF44-53271D6C1876";
name = Regular;
paths = (
{
closed = 1;
nodes = (
"352 505 OFFCURVE",
"212 526 OFFCURVE",
"105 512 CURVE",
"68 479 OFFCURVE",
"50 446 OFFCURVE",
"36 413 CURVE",
"30 107 LINE",
"42 60 OFFCURVE",
"87 0 OFFCURVE",
"117 -16 CURVE",
"211 -16 OFFCURVE",
"469 182 OFFCURVE",
"499 425 CURVE",
"496 440 OFFCURVE",
"469 476 OFFCURVE",
"448 500 CURVE",
"423 500 LINE",
"423 357 OFFCURVE",
"255 128 OFFCURVE",
"164 106 CURVE SMOOTH",
"141 100 OFFCURVE",
"113 289 OFFCURVE",
"182 437 CURVE",
"140 399 LINE",
"227 419 OFFCURVE",
"327 382 OFFCURVE",
"405 271 CURVE",
"458 362 LINE"
);
}
